<svg width="29" height="29" viewBox="0 0 29 29" fill="none" xmlns="http://www.w3.org/2000/svg">
<path d="M22.8105 20.5206L17.7876 15.4977L21.452 13.3808C21.6667 13.2567 21.7917 13.021 21.7738 12.7738C21.7559 12.5265 21.5983 12.3113 21.368 12.2195L5.88728 6.04616C5.64687 5.95023 5.37269 6.00659 5.18964 6.1895C5.00665 6.37235 4.95026 6.64653 5.04606 6.88671L11.2193 22.3676C11.3111 22.5979 11.5264 22.7555 11.7739 22.7734C12.0213 22.7916 12.2573 22.6664 12.3812 22.4516L14.4976 18.7881L19.5201 23.8104C19.6415 23.9318 19.8062 24 19.9779 24C20.1497 24 20.3145 23.9318 20.4359 23.8104L22.8104 21.4355C23.0632 21.1828 23.0632 20.7732 22.8105 20.5206Z" fill="black"/>
</svg>
