<svg width="32" height="32" viewBox="0 0 32 32" fill="none" xmlns="http://www.w3.org/2000/svg">
<path d="M22.75 11.1H15.79L15.55 10.4C15.3944 9.98928 15.1058 9.63387 14.7242 9.38303C14.3425 9.13219 13.8868 8.99834 13.42 9.00002H9.25C8.65326 9.00002 8.08097 9.22126 7.65901 9.61509C7.23705 10.0089 7 10.5431 7 11.1V20.9C7 21.457 7.23705 21.9911 7.65901 22.3849C8.08097 22.7788 8.65326 23 9.25 23H22.75C23.3467 23 23.919 22.7788 24.341 22.3849C24.7629 21.9911 25 21.457 25 20.9V13.2C25 12.6431 24.7629 12.1089 24.341 11.7151C23.919 11.3213 23.3467 11.1 22.75 11.1ZM23.5 20.9C23.5 21.0857 23.421 21.2637 23.2803 21.395C23.1397 21.5263 22.9489 21.6 22.75 21.6H9.25C9.05109 21.6 8.86032 21.5263 8.71967 21.395C8.57902 21.2637 8.5 21.0857 8.5 20.9V11.1C8.5 10.9144 8.57902 10.7363 8.71967 10.605C8.86032 10.4738 9.05109 10.4 9.25 10.4H13.42C13.5772 10.3996 13.7306 10.4454 13.8585 10.5308C13.9863 10.6162 14.0822 10.737 14.1325 10.876L14.71 12.5H22.75C22.9489 12.5 23.1397 12.5738 23.2803 12.705C23.421 12.8363 23.5 13.0144 23.5 13.2V20.9Z" fill="black"/>
</svg>
