<svg width="30" height="29" viewBox="0 0 30 29" fill="none" xmlns="http://www.w3.org/2000/svg">
<path d="M15 14.5H13.0425V16.4575H15V14.5Z" fill="black"/>
<path d="M22.8301 14.5H20.8726V16.4575H22.8301V14.5Z" fill="black"/>
<path d="M9.12742 12.5425H7.16992V14.5H9.12742V12.5425Z" fill="black"/>
<path d="M22.8301 10.585H20.8726V12.5425H22.8301V10.585Z" fill="black"/>
<path d="M22.8301 18.415H20.8726V20.3725H22.8301V18.415Z" fill="black"/>
<path d="M16.9575 12.5425H15V14.5H16.9575V12.5425Z" fill="black"/>
<path d="M9.12742 20.3725H7.16992V22.33H9.12742V20.3725Z" fill="black"/>
<path d="M13.0425 20.3725H11.085V22.33H13.0425V20.3725Z" fill="black"/>
<path d="M18.915 6.67001H16.9575V8.62751H18.915V6.67001Z" fill="black"/>
<path d="M11.0849 6.67001H9.12744V8.62751H11.0849V6.67001Z" fill="black"/>
<path d="M16.9575 20.3725H15V22.33H16.9575V20.3725Z" fill="black"/>
<path d="M9.12742 8.6275H7.16992V10.585H9.12742V8.6275Z" fill="black"/>
<path d="M9.12742 16.4575H7.16992V18.415H9.12742V16.4575Z" fill="black"/>
<path d="M15 6.67001H13.0425V8.62751H15V6.67001Z" fill="black"/>
<path d="M20.8725 20.3725H18.915V22.33H20.8725V20.3725Z" fill="black"/>
<path d="M11.0849 18.415H9.12744V20.3725H11.0849V18.415Z" fill="black"/>
<path d="M18.915 18.415H16.9575V20.3725H18.915V18.415Z" fill="black"/>
<path d="M15 10.585H13.0425V12.5425H15V10.585Z" fill="black"/>
<path d="M20.8725 16.4575H18.915V18.415H20.8725V16.4575Z" fill="black"/>
<path d="M11.0849 14.5H9.12744V16.4575H11.0849V14.5Z" fill="black"/>
<path d="M20.8725 12.5425H18.915V14.5H20.8725V12.5425Z" fill="black"/>
<path d="M22.8301 6.67001H20.8726V8.62751H22.8301V6.67001Z" fill="black"/>
<path d="M11.0849 10.585H9.12744V12.5425H11.0849V10.585Z" fill="black"/>
<path d="M20.8725 8.6275H18.915V10.585H20.8725V8.6275Z" fill="black"/>
<path d="M15 18.415H13.0425V20.3725H15V18.415Z" fill="black"/>
<path d="M13.0425 16.4575H11.085V18.415H13.0425V16.4575Z" fill="black"/>
<path d="M16.9575 16.4575H15V18.415H16.9575V16.4575Z" fill="black"/>
<path d="M13.0425 12.5425H11.085V14.5H13.0425V12.5425Z" fill="black"/>
<path d="M16.9575 8.6275H15V10.585H16.9575V8.6275Z" fill="black"/>
<path d="M13.0425 8.6275H11.085V10.585H13.0425V8.6275Z" fill="black"/>
<path d="M18.915 10.585H16.9575V12.5425H18.915V10.585Z" fill="black"/>
<path d="M18.915 14.5H16.9575V16.4575H18.915V14.5Z" fill="black"/>
</svg>
