<svg width="18" height="18" viewBox="0 0 18 18" fill="none" xmlns="http://www.w3.org/2000/svg">
<g clip-path="url(#clip0_370_1322)">
<path d="M15.8401 0.359985H2.16011C1.16759 0.359985 0.360107 1.16747 0.360107 2.15999V15.84C0.360107 16.8325 1.16759 17.64 2.16011 17.64H15.8401C16.8326 17.64 17.6401 16.8325 17.6401 15.84V2.15999C17.6401 1.16747 16.8326 0.359985 15.8401 0.359985ZM16.9201 15.84C16.9201 16.4354 16.4355 16.92 15.8401 16.92H2.16011C1.56467 16.92 1.08011 16.4354 1.08011 15.84V2.15999C1.08011 1.56455 1.56467 1.07999 2.16011 1.07999H15.8401C16.4355 1.07999 16.9201 1.56455 16.9201 2.15999V15.84Z" fill="black"/>
</g>
<defs>
<clipPath id="clip0_370_1322">
<rect width="18" height="18" fill="white"/>
</clipPath>
</defs>
</svg>
