<svg width="18" height="18" viewBox="0 0 18 18" fill="none" xmlns="http://www.w3.org/2000/svg">
<path d="M14.5715 11.0391L17.0072 8.60063C17.1853 8.42055 17.2852 8.1775 17.2852 7.92422C17.2852 7.67095 17.1853 7.42789 17.0072 7.24782L11.6437 1.88719C11.5552 1.79841 11.4499 1.72797 11.3341 1.67991C11.2183 1.63185 11.0941 1.60712 10.9687 1.60712C10.8433 1.60712 10.7191 1.63185 10.6033 1.67991C10.4875 1.72797 10.3823 1.79841 10.2937 1.88719L0.992777 11.1881C0.814161 11.3674 0.713867 11.6101 0.713867 11.8631C0.713867 12.1162 0.814161 12.3589 0.992777 12.5381L4.72496 16.2703C4.76487 16.3094 4.81157 16.3408 4.86278 16.3631C4.91419 16.382 4.96833 16.3925 5.02309 16.3941H15.1875C15.2994 16.3941 15.4067 16.3496 15.4858 16.2705C15.5649 16.1914 15.6093 16.0841 15.6093 15.9722C15.6093 15.8603 15.5649 15.753 15.4858 15.6739C15.4067 15.5948 15.2994 15.5503 15.1875 15.5503H10.0603L14.5715 11.0391ZM10.89 2.48344C10.9002 2.47289 10.9124 2.46451 10.926 2.45878C10.9395 2.45306 10.954 2.45011 10.9687 2.45011C10.9834 2.45011 10.9979 2.45306 11.0115 2.45878C11.025 2.46451 11.0372 2.47289 11.0475 2.48344L16.4109 7.84407C16.4215 7.85453 16.43 7.86701 16.4357 7.88077C16.4415 7.89453 16.4445 7.9093 16.4445 7.92422C16.4445 7.93914 16.4415 7.95391 16.4357 7.96767C16.43 7.98143 16.4215 7.99391 16.4109 8.00438L14.2734 10.1447L8.74965 4.62094L10.89 2.48344ZM5.19746 15.5503L1.58903 11.9447C1.5784 11.9342 1.56996 11.9217 1.56419 11.908C1.55843 11.8942 1.55547 11.8795 1.55547 11.8645C1.55547 11.8496 1.55843 11.8348 1.56419 11.8211C1.56996 11.8073 1.5784 11.7948 1.58903 11.7844L8.15622 5.21719L13.6772 10.7409L8.86778 15.5503H5.19746Z" fill="black"/>
</svg>
