<svg width="29" height="29" viewBox="0 0 29 29" fill="none" xmlns="http://www.w3.org/2000/svg">
<path d="M22.3574 18.0909C21.9716 18.0909 21.7145 18.4182 21.7145 18.9091V21.3636H19.7859C19.4002 21.3636 19.1431 21.6909 19.1431 22.1818C19.1431 22.6727 19.4002 23 19.7859 23H22.3574C22.7431 23 23.0002 22.6727 23.0002 22.1818V18.9091C23.0002 18.4182 22.7431 18.0909 22.3574 18.0909Z" fill="black"/>
<path d="M15.9285 21.3636H12.0713C11.6856 21.3636 11.4285 21.6909 11.4285 22.1818C11.4285 22.6727 11.6856 23 12.0713 23H15.9285C16.3142 23 16.5713 22.6727 16.5713 22.1818C16.5713 21.6909 16.3142 21.3636 15.9285 21.3636Z" fill="black"/>
<path d="M8.21429 21.3636H6.28571V18.9091C6.28571 18.4182 6.02857 18.0909 5.64286 18.0909C5.25714 18.0909 5 18.4182 5 18.9091V22.1818C5 22.6727 5.25714 23 5.64286 23H8.21429C8.6 23 8.85714 22.6727 8.85714 22.1818C8.85714 21.6909 8.6 21.3636 8.21429 21.3636Z" fill="black"/>
<path d="M5.64286 16.4545C6.02857 16.4545 6.28571 16.1273 6.28571 15.6363V12.3636C6.28571 11.8727 6.02857 11.5454 5.64286 11.5454C5.25714 11.5454 5 11.8727 5 12.3636V15.6363C5 16.1273 5.25714 16.4545 5.64286 16.4545Z" fill="black"/>
<path d="M8.21429 5H5.64286C5.25714 5 5 5.32727 5 5.81818V9.09091C5 9.58182 5.25714 9.90909 5.64286 9.90909C6.02857 9.90909 6.28571 9.58182 6.28571 9.09091V6.63636H8.21429C8.6 6.63636 8.85714 6.30909 8.85714 5.81818C8.85714 5.32727 8.6 5 8.21429 5Z" fill="black"/>
<path d="M15.9285 5H12.0713C11.6856 5 11.4285 5.32727 11.4285 5.81818C11.4285 6.30909 11.6856 6.63636 12.0713 6.63636H15.9285C16.3142 6.63636 16.5713 6.30909 16.5713 5.81818C16.5713 5.32727 16.3142 5 15.9285 5Z" fill="black"/>
<path d="M22.3571 5H19.7857C19.4 5 19.1428 5.32727 19.1428 5.81818C19.1428 6.30909 19.4 6.63636 19.7857 6.63636H21.7143V9.09091C21.7143 9.58182 21.9714 9.90909 22.3571 9.90909C22.7428 9.90909 23 9.58182 23 9.09091V5.81818C23 5.32727 22.7428 5 22.3571 5Z" fill="black"/>
<path d="M22.3575 11.5454C21.9717 11.5454 21.7146 11.8727 21.7146 12.3636V15.6363C21.7146 16.1273 21.9717 16.4545 22.3575 16.4545C22.7432 16.4545 23.0003 16.1273 23.0003 15.6363V12.3636C23.0003 11.8727 22.7432 11.5454 22.3575 11.5454Z" fill="black"/>
</svg>
