<svg width="18" height="18" viewBox="0 0 18 18" fill="none" xmlns="http://www.w3.org/2000/svg">
<g clip-path="url(#clip0_370_1332)">
<path d="M8.99988 6.74649e-07C7.21995 0.000460071 5.48012 0.528692 4.00038 1.5179C2.52064 2.50712 1.36745 3.91288 0.686619 5.55746C0.00578649 7.20203 -0.172112 9.01156 0.175417 10.7572C0.522946 12.5029 1.3803 14.1063 2.63906 15.3648C3.89783 16.6232 5.50148 17.4802 7.24724 17.8272C8.99301 18.1743 10.8025 17.996 12.4469 17.3147C14.0913 16.6334 15.4968 15.4799 16.4856 13.9999C17.4744 12.5199 18.0022 10.7799 18.0022 9C18.0024 7.81786 17.7696 6.64728 17.3172 5.55513C16.8648 4.46298 16.2017 3.47067 15.3657 2.63488C14.5297 1.79909 13.5372 1.13621 12.4449 0.684107C11.3527 0.232006 10.182 -0.000457054 8.99988 6.74649e-07ZM8.99988 16.2602C7.56461 16.2597 6.1617 15.8337 4.96851 15.036C3.77532 14.2384 2.84543 13.1048 2.29639 11.7787C1.74735 10.4526 1.60381 8.99349 1.88393 7.58582C2.16405 6.17815 2.85525 4.88514 3.87013 3.87026C4.88502 2.85537 6.17803 2.16417 7.5857 1.88405C8.99336 1.60394 10.4525 1.74747 11.7786 2.29651C13.1047 2.84555 14.2382 3.77545 15.0359 4.96863C15.8336 6.16182 16.2596 7.56473 16.26 9C16.2585 10.925 15.4931 12.7708 14.1319 14.132C12.7707 15.4932 10.9249 16.2586 8.99988 16.2602ZM6.09628 8.4216C6.32599 8.4216 6.55054 8.35349 6.74154 8.22587C6.93254 8.09824 7.0814 7.91685 7.16931 7.70463C7.25722 7.4924 7.28022 7.25887 7.2354 7.03358C7.19059 6.80828 7.07997 6.60133 6.91754 6.4389C6.75511 6.27647 6.54816 6.16585 6.32286 6.12104C6.09757 6.07623 5.86404 6.09923 5.65181 6.18713C5.43959 6.27504 5.2582 6.4239 5.13058 6.6149C5.00296 6.8059 4.93484 7.03045 4.93484 7.26016C4.93545 7.56779 5.05809 7.86261 5.27584 8.07992C5.49358 8.29723 5.78865 8.41928 6.09628 8.41928V8.4216ZM11.9035 8.4216C12.1332 8.4216 12.3577 8.35349 12.5487 8.22587C12.7397 8.09824 12.8886 7.91685 12.9765 7.70463C13.0644 7.4924 13.0874 7.25887 13.0426 7.03358C12.9978 6.80828 12.8872 6.60133 12.7247 6.4389C12.5623 6.27647 12.3554 6.16585 12.1301 6.12104C11.9048 6.07623 11.6712 6.09923 11.459 6.18713C11.2468 6.27504 11.0654 6.4239 10.9378 6.6149C10.8102 6.8059 10.742 7.03045 10.742 7.26016C10.7427 7.56779 10.8653 7.86261 11.083 8.07992C11.3008 8.29723 11.5958 8.41928 11.9035 8.41928V8.4216ZM12.0487 11.0557C11.6767 11.5032 11.2107 11.8633 10.6839 12.1104C10.1571 12.3575 9.58235 12.4856 9.00046 12.4856C8.41857 12.4856 7.84381 12.3575 7.317 12.1104C6.79019 11.8633 6.32425 11.5032 5.95226 11.0557C5.80297 10.8834 5.59208 10.7765 5.36484 10.7579C5.13761 10.7394 4.91215 10.8106 4.73687 10.9564C4.56158 11.1022 4.45044 11.3109 4.42731 11.5377C4.40417 11.7645 4.47088 11.9914 4.61312 12.1696C5.1493 12.8124 5.82019 13.3296 6.57834 13.6845C7.33649 14.0394 8.16336 14.2233 9.00046 14.2233C9.83756 14.2233 10.6644 14.0394 11.4226 13.6845C12.1807 13.3296 12.8516 12.8124 13.3878 12.1696C13.53 11.9914 13.5967 11.7645 13.5736 11.5377C13.5505 11.3109 13.4393 11.1022 13.264 10.9564C13.0888 10.8106 12.8633 10.7394 12.6361 10.7579C12.4088 10.7765 12.1979 10.8834 12.0487 11.0557Z" fill="black"/>
</g>
<defs>
<clipPath id="clip0_370_1332">
<rect width="18" height="18" fill="white"/>
</clipPath>
</defs>
</svg>
