<svg width="18" height="20" viewBox="0 0 18 20" fill="none" xmlns="http://www.w3.org/2000/svg">
<path d="M15.7382 4.876C15.6993 4.83654 15.6528 4.80521 15.6017 4.78383C15.5505 4.76246 15.4956 4.75143 15.4401 4.75143C15.3847 4.75143 15.3297 4.76246 15.2786 4.78383C15.2274 4.80521 15.1809 4.83654 15.142 4.876L13.0945 6.9235L11.5561 5.38787L13.6064 3.33756C13.6854 3.25811 13.7297 3.15052 13.7294 3.03844C13.7292 2.92635 13.6844 2.81897 13.605 2.7399C13.5255 2.66083 13.4179 2.61656 13.3058 2.61682C13.1937 2.61709 13.0864 2.66186 13.0073 2.74131L10.9598 4.79725L10.6195 4.4485C10.5805 4.40904 10.5341 4.37771 10.4829 4.35633C10.4317 4.33496 10.3768 4.32393 10.3214 4.32393C10.2659 4.32393 10.211 4.33496 10.1598 4.35633C10.1086 4.37771 10.0622 4.40904 10.0232 4.4485L9.37918 5.0785C9.34036 5.11776 9.30971 5.16434 9.28895 5.2155C9.2682 5.26666 9.25776 5.32142 9.25824 5.37662C9.25787 5.488 9.30133 5.59507 9.37918 5.67475L9.75043 6.04319L8.83355 6.96006L4.50793 7.3285H4.4573H4.42636L4.38136 7.34819L4.35043 7.36225C4.33667 7.36967 4.32351 7.37814 4.31105 7.38756L4.28293 7.40725L4.24918 7.43819L4.22668 7.46631L4.20136 7.50006L4.18168 7.53381L4.1648 7.57037C4.15901 7.58306 4.15428 7.59625 4.15074 7.60975L2.01323 15.9516C1.99488 16.0226 1.99563 16.0972 2.01539 16.1678C2.03514 16.2385 2.07321 16.3026 2.12573 16.3538C2.15721 16.3865 2.19438 16.4132 2.23541 16.4326C2.31284 16.5015 2.41296 16.5396 2.51666 16.5394H11.2664C11.3782 16.5394 11.4855 16.495 11.5647 16.4159C11.6438 16.3367 11.6882 16.2294 11.6882 16.1176C11.6882 16.0057 11.6438 15.8984 11.5647 15.8192C11.4855 15.7401 11.3782 15.6957 11.2664 15.6957H5.55699L10.8473 14.3597L10.9007 14.3316H10.9232C10.9648 14.3153 11.0029 14.2915 11.0357 14.2613C11.0683 14.2302 11.0959 14.1941 11.1173 14.1544V14.1376C11.1376 14.0951 11.15 14.0494 11.1539 14.0026L11.497 9.67694L12.4251 8.73475L12.7964 9.106C12.8354 9.14529 12.8818 9.17648 12.933 9.19771C12.9842 9.21898 13.0391 9.22986 13.0945 9.22975C13.2061 9.22874 13.313 9.18436 13.3926 9.106L14.0311 8.4535C14.1101 8.37438 14.1544 8.26717 14.1544 8.15537C14.1544 8.04358 14.1101 7.93634 14.0311 7.85725L13.6907 7.51412L15.7382 5.47225C15.7777 5.43327 15.809 5.38683 15.8304 5.33567C15.8518 5.28449 15.8628 5.22959 15.8628 5.17412C15.8628 5.11866 15.8518 5.06373 15.8304 5.01257C15.809 4.96139 15.7777 4.91498 15.7382 4.876ZM10.8023 9.15944C10.7666 9.19707 10.738 9.24092 10.7179 9.28881V9.30569C10.7043 9.34295 10.6948 9.38162 10.6898 9.421L10.3382 13.6032L3.80761 15.2682L6.90136 12.1744C7.18872 12.3368 7.52158 12.4 7.84845 12.3543C8.17534 12.3085 8.47805 12.1564 8.7098 11.9213C8.97859 11.6323 9.12481 11.2502 9.11764 10.8555C9.1105 10.4609 8.95052 10.0844 8.67141 9.8053C8.39233 9.52619 8.01582 9.36621 7.62117 9.35907C7.22652 9.3519 6.84447 9.49812 6.55543 9.76694C6.2746 10.0516 6.11786 10.4358 6.11949 10.8357C6.12182 11.0927 6.18854 11.3451 6.31355 11.5697L3.2198 14.6635L4.8848 8.12444L9.06418 7.79256C9.10383 7.78919 9.14273 7.77971 9.17949 7.76444H9.19918C9.24415 7.74489 9.28513 7.71724 9.32011 7.68287L10.2398 6.766L11.722 8.24819L10.8023 9.15944ZM7.16293 11.3166C7.09905 11.254 7.04846 11.1791 7.01417 11.0965C6.97986 11.0138 6.96254 10.9252 6.96324 10.8357C6.96315 10.7463 6.98076 10.6578 7.01505 10.5753C7.0493 10.4927 7.09956 10.4178 7.16293 10.3547C7.29123 10.2287 7.46395 10.158 7.64386 10.158C7.82375 10.158 7.99647 10.2287 8.1248 10.3547C8.2517 10.4828 8.32339 10.6554 8.32449 10.8357C8.32455 10.925 8.30694 11.0135 8.27265 11.0961C8.2384 11.1786 8.18814 11.2536 8.1248 11.3166C7.99576 11.4414 7.82333 11.5111 7.64386 11.5111C7.46437 11.5111 7.29194 11.4414 7.16293 11.3166Z" fill="black"/>
<path d="M15.441 16.5394H13.5903C13.4785 16.5394 13.3712 16.5839 13.292 16.663C13.2129 16.7421 13.1685 16.8494 13.1685 16.9613C13.1685 17.0732 13.2129 17.1805 13.292 17.2596C13.3712 17.3387 13.4785 17.3832 13.5903 17.3832H15.441C15.5528 17.3832 15.6602 17.3387 15.7393 17.2596C15.8184 17.1805 15.8628 17.0732 15.8628 16.9613C15.8628 16.8494 15.8184 16.7421 15.7393 16.663C15.6602 16.5839 15.5528 16.5394 15.441 16.5394Z" fill="black"/>
</svg>
