<svg width="30" height="29" viewBox="0 0 30 29" fill="none" xmlns="http://www.w3.org/2000/svg">
<path d="M15.5074 4.98437C15.4418 4.91581 15.363 4.8613 15.2758 4.82401C15.1885 4.78676 15.0947 4.76755 14.9999 4.76755C14.905 4.76755 14.8111 4.78676 14.7239 4.82401C14.6367 4.8613 14.5579 4.91581 14.4924 4.98437C14.2114 5.30156 7.52783 12.8008 7.52783 16.7656C7.93564 26.6755 22.0641 26.6755 22.481 16.7656C22.4719 12.8008 15.7883 5.30156 15.5074 4.98437ZM14.9999 22.8828C13.3783 22.8816 11.8235 22.2366 10.6773 21.0895C9.53105 19.9424 8.88721 18.3872 8.88721 16.7656C8.88721 14.1375 12.9155 8.89484 14.9999 6.46609C17.0842 8.89937 21.1125 14.142 21.1125 16.7656C21.1125 18.3872 20.4686 19.9424 19.3224 21.0895C18.1762 22.2366 16.6215 22.8816 14.9999 22.8828Z" fill="black"/>
<path d="M15 19.9375C14.1588 19.9375 13.352 19.6033 12.7572 19.0085C12.1623 18.4136 11.8281 17.6069 11.8281 16.7656C11.8281 16.5854 11.7565 16.4125 11.6291 16.285C11.5016 16.1575 11.3287 16.0859 11.1484 16.0859C10.9682 16.0859 10.7953 16.1575 10.6678 16.285C10.5403 16.4125 10.4688 16.5854 10.4688 16.7656C10.4688 17.9674 10.9462 19.1199 11.7959 19.9697C12.6457 20.8195 13.7982 21.2969 15 21.2969C15.1803 21.2969 15.3532 21.2253 15.4806 21.0978C15.6081 20.9704 15.6797 20.7974 15.6797 20.6172C15.6797 20.4369 15.6081 20.264 15.4806 20.1366C15.3532 20.0091 15.1803 19.9375 15 19.9375Z" fill="black"/>
</svg>
