<svg width="30" height="29" viewBox="0 0 30 29" fill="none" xmlns="http://www.w3.org/2000/svg">
<path d="M12.2813 16.1312C11.6133 16.1286 10.9625 16.3427 10.4265 16.7415C9.89052 17.1402 9.49833 17.702 9.30878 18.3425C9.2744 18.4332 9.2132 18.5113 9.13333 18.5663C9.05345 18.6214 8.9587 18.6508 8.8617 18.6506C8.51732 18.6506 7.47212 17.7987 7.17003 17.5994C7.14587 20.1187 8.3542 22.3542 11.085 22.3542C13.405 22.3542 15 20.9887 15 18.6567C14.9959 18.5615 14.9859 18.4666 14.9698 18.3727L12.2813 16.1312Z" fill="black"/>
<path d="M21.1746 6.64585C20.7243 6.66069 20.2948 6.83894 19.9663 7.14731C13.7131 12.7358 13.0606 12.8627 13.0606 14.5121C13.0573 14.9297 13.1482 15.3427 13.3265 15.7204L15.2779 17.3517C15.503 17.4097 15.7343 17.4401 15.9667 17.4423C17.8638 17.4423 18.9875 16.0527 22.4252 9.58814C22.6743 9.1584 22.8191 8.67627 22.8481 8.18043C22.8404 7.96933 22.7908 7.76187 22.7022 7.57009C22.6137 7.37832 22.4879 7.20604 22.3322 7.06328C22.1765 6.92051 21.994 6.81009 21.7953 6.73843C21.5965 6.66677 21.3856 6.6353 21.1746 6.64585Z" fill="black"/>
</svg>
