<svg width="30" height="30" viewBox="0 0 30 30" fill="none" xmlns="http://www.w3.org/2000/svg">
<path d="M21.0937 10.75H8.90615C8.64834 10.75 8.4374 10.9187 8.4374 11.125V20.875C8.4374 21.0812 8.64834 21.25 8.90615 21.25H21.0937C21.3515 21.25 21.5624 21.0812 21.5624 20.875V11.125C21.5624 10.9187 21.3515 10.75 21.0937 10.75ZM20.6249 11.5V19.93L18.2155 16.9225C18.1312 16.8137 17.9812 16.75 17.8218 16.75C17.6624 16.75 17.5124 16.8137 17.428 16.9225L16.078 18.6025L13.528 15.4225C13.3546 15.2087 12.9093 15.2087 12.7405 15.4225L9.37959 19.615V11.5H20.6296H20.6249ZM17.6015 20.5L16.6358 19.2962L17.8218 17.8187L19.9687 20.5H17.6015ZM16.4858 20.5H9.77803L13.1296 16.3187L16.4812 20.5H16.4858ZM15.9374 15.25C16.7108 15.25 17.3437 14.7437 17.3437 14.125C17.3437 13.5062 16.7108 13 15.9374 13C15.164 13 14.5312 13.5062 14.5312 14.125C14.5312 14.7437 15.164 15.25 15.9374 15.25ZM15.9374 13.75C16.1952 13.75 16.4062 13.9187 16.4062 14.125C16.4062 14.3312 16.1952 14.5 15.9374 14.5C15.6796 14.5 15.4687 14.3312 15.4687 14.125C15.4687 13.9187 15.6796 13.75 15.9374 13.75ZM27.1874 19C26.578 19 26.0624 19.315 25.8655 19.75H25.0921L24.2952 18.7937C24.2062 18.6887 24.0608 18.625 23.9062 18.625H23.4374V16.375H24.928C25.1202 16.81 25.6358 17.125 26.2499 17.125C27.0233 17.125 27.6562 16.6187 27.6562 16C27.6562 15.3812 27.0233 14.875 26.2499 14.875C25.6405 14.875 25.1249 15.19 24.928 15.625H23.4374V13.375H23.9062C24.0608 13.375 24.2108 13.3112 24.2952 13.2062L25.0921 12.25H25.8655C26.0577 12.685 26.5733 13 27.1874 13C27.9608 13 28.5937 12.4937 28.5937 11.875C28.5937 11.2562 27.9608 10.75 27.1874 10.75C26.578 10.75 26.0624 11.065 25.8655 11.5H24.8437C24.689 11.5 24.539 11.5637 24.4546 11.6687L23.6577 12.625H23.4421V9.99997C23.4421 9.58747 23.0202 9.24997 22.5046 9.24997H19.2233V9.07747L20.4187 8.43997C20.5499 8.36872 20.6296 8.25247 20.6296 8.12872V7.31122C21.1733 7.15747 21.5671 6.74497 21.5671 6.25372C21.5671 5.63497 20.9343 5.12872 20.1608 5.12872C19.3874 5.12872 18.7546 5.63497 18.7546 6.25372C18.7546 6.74122 19.1483 7.15372 19.6921 7.31122V7.92997L18.4968 8.56747C18.3655 8.63872 18.2858 8.75497 18.2858 8.87872V9.25372H15.4733V8.06122C16.0171 7.90747 16.4108 7.49497 16.4108 7.00372C16.4108 6.38497 15.778 5.87872 15.0046 5.87872C14.2312 5.87872 13.5983 6.38497 13.5983 7.00372C13.5983 7.49122 13.9921 7.90372 14.5358 8.06122V9.25372H11.7233V8.87872C11.7233 8.75497 11.6437 8.63497 11.5124 8.56747L10.3171 7.92997V7.31122C10.8608 7.15747 11.2546 6.74497 11.2546 6.25372C11.2546 5.63497 10.6218 5.12872 9.84834 5.12872C9.0749 5.12872 8.44209 5.63497 8.44209 6.25372C8.44209 6.74122 8.83584 7.15372 9.37959 7.31122V8.12872C9.37959 8.25247 9.45928 8.37247 9.59053 8.43997L10.7858 9.07747V9.24997H7.50459C6.98896 9.24997 6.56709 9.58747 6.56709 9.99997V12.625H6.35147L5.55459 11.6687C5.46553 11.5637 5.32021 11.5 5.16553 11.5H4.14365C3.95146 11.065 3.43584 10.75 2.82178 10.75C2.04834 10.75 1.41553 11.2562 1.41553 11.875C1.41553 12.4937 2.04834 13 2.82178 13C3.43115 13 3.94678 12.685 4.14365 12.25H4.91709L5.71396 13.2062C5.80303 13.3112 5.94834 13.375 6.10303 13.375H6.57178V15.625H5.08115C4.88896 15.19 4.37334 14.875 3.75928 14.875C2.98584 14.875 2.35303 15.3812 2.35303 16C2.35303 16.6187 2.98584 17.125 3.75928 17.125C4.36865 17.125 4.88428 16.81 5.08115 16.375H6.57178V18.625H6.10303C5.94834 18.625 5.79834 18.6887 5.71396 18.7937L4.91709 19.75H4.14365C3.95146 19.315 3.43584 19 2.82178 19C2.04834 19 1.41553 19.5062 1.41553 20.125C1.41553 20.7437 2.04834 21.25 2.82178 21.25C3.43115 21.25 3.94678 20.935 4.14365 20.5H5.16553C5.32021 20.5 5.47021 20.4362 5.55459 20.3312L6.35147 19.375H6.56709V22C6.56709 22.4125 6.98896 22.75 7.50459 22.75H10.7858V22.9225L9.59053 23.56C9.45928 23.6312 9.37959 23.7475 9.37959 23.8712V24.6887C8.83584 24.8425 8.44209 25.255 8.44209 25.7462C8.44209 26.365 9.0749 26.8712 9.84834 26.8712C10.6218 26.8712 11.2546 26.365 11.2546 25.7462C11.2546 25.2587 10.8608 24.8462 10.3171 24.6887V24.07L11.5124 23.4325C11.6437 23.3612 11.7233 23.245 11.7233 23.1212V22.7462H14.5358V23.9387C13.9921 24.0925 13.5983 24.505 13.5983 24.9962C13.5983 25.615 14.2312 26.1212 15.0046 26.1212C15.778 26.1212 16.4108 25.615 16.4108 24.9962C16.4108 24.5087 16.0171 24.0962 15.4733 23.9387V22.7462H18.2858V23.1212C18.2858 23.245 18.3655 23.365 18.4968 23.4325L19.6921 24.07V24.6887C19.1483 24.8425 18.7546 25.255 18.7546 25.7462C18.7546 26.365 19.3874 26.8712 20.1608 26.8712C20.9343 26.8712 21.5671 26.365 21.5671 25.7462C21.5671 25.2587 21.1733 24.8462 20.6296 24.6887V23.8712C20.6296 23.7475 20.5499 23.6275 20.4187 23.56L19.2233 22.9225V22.75H22.5046C23.0202 22.75 23.4421 22.4125 23.4421 22V19.375H23.6577L24.4546 20.3312C24.5437 20.4362 24.689 20.5 24.8437 20.5H25.8655C26.0577 20.935 26.5733 21.25 27.1874 21.25C27.9608 21.25 28.5937 20.7437 28.5937 20.125C28.5937 19.5062 27.9608 19 27.1874 19ZM26.2499 15.625C26.5077 15.625 26.7187 15.7937 26.7187 16C26.7187 16.2062 26.5077 16.375 26.2499 16.375C25.9921 16.375 25.7812 16.2062 25.7812 16C25.7812 15.7937 25.9921 15.625 26.2499 15.625ZM27.1874 11.5C27.4452 11.5 27.6562 11.6687 27.6562 11.875C27.6562 12.0812 27.4452 12.25 27.1874 12.25C26.9296 12.25 26.7187 12.0812 26.7187 11.875C26.7187 11.6687 26.9296 11.5 27.1874 11.5ZM20.1562 5.87497C20.414 5.87497 20.6249 6.04372 20.6249 6.24997C20.6249 6.45622 20.414 6.62497 20.1562 6.62497C19.8983 6.62497 19.6874 6.45622 19.6874 6.24997C19.6874 6.04372 19.8983 5.87497 20.1562 5.87497ZM14.9999 6.62497C15.2577 6.62497 15.4687 6.79372 15.4687 6.99997C15.4687 7.20622 15.2577 7.37497 14.9999 7.37497C14.7421 7.37497 14.5312 7.20622 14.5312 6.99997C14.5312 6.79372 14.7421 6.62497 14.9999 6.62497ZM9.84365 5.87497C10.1015 5.87497 10.3124 6.04372 10.3124 6.24997C10.3124 6.45622 10.1015 6.62497 9.84365 6.62497C9.58584 6.62497 9.3749 6.45622 9.3749 6.24997C9.3749 6.04372 9.58584 5.87497 9.84365 5.87497ZM2.8124 12.25C2.55459 12.25 2.34365 12.0812 2.34365 11.875C2.34365 11.6687 2.55459 11.5 2.8124 11.5C3.07021 11.5 3.28115 11.6687 3.28115 11.875C3.28115 12.0812 3.07021 12.25 2.8124 12.25ZM3.7499 16.375C3.49209 16.375 3.28115 16.2062 3.28115 16C3.28115 15.7937 3.49209 15.625 3.7499 15.625C4.00771 15.625 4.21865 15.7937 4.21865 16C4.21865 16.2062 4.00771 16.375 3.7499 16.375ZM2.8124 20.5C2.55459 20.5 2.34365 20.3312 2.34365 20.125C2.34365 19.9187 2.55459 19.75 2.8124 19.75C3.07021 19.75 3.28115 19.9187 3.28115 20.125C3.28115 20.3312 3.07021 20.5 2.8124 20.5ZM9.84365 26.125C9.58584 26.125 9.3749 25.9562 9.3749 25.75C9.3749 25.5437 9.58584 25.375 9.84365 25.375C10.1015 25.375 10.3124 25.5437 10.3124 25.75C10.3124 25.9562 10.1015 26.125 9.84365 26.125ZM14.9999 25.375C14.7421 25.375 14.5312 25.2062 14.5312 25C14.5312 24.7937 14.7421 24.625 14.9999 24.625C15.2577 24.625 15.4687 24.7937 15.4687 25C15.4687 25.2062 15.2577 25.375 14.9999 25.375ZM20.1562 26.125C19.8983 26.125 19.6874 25.9562 19.6874 25.75C19.6874 25.5437 19.8983 25.375 20.1562 25.375C20.414 25.375 20.6249 25.5437 20.6249 25.75C20.6249 25.9562 20.414 26.125 20.1562 26.125ZM22.4999 22H18.7499H15.0046H11.2593H7.51397V9.99997H22.4999V22ZM27.1874 20.5C26.9296 20.5 26.7187 20.3312 26.7187 20.125C26.7187 19.9187 26.9296 19.75 27.1874 19.75C27.4452 19.75 27.6562 19.9187 27.6562 20.125C27.6562 20.3312 27.4452 20.5 27.1874 20.5Z" fill="black"/>
</svg>
