<svg width="32" height="33" viewBox="0 0 32 33" fill="none" xmlns="http://www.w3.org/2000/svg">
<path d="M16.5791 23.8458L22.7408 19.1658C22.8299 19.1055 22.9019 19.032 22.9523 18.9497C23.0028 18.8674 23.0307 18.7782 23.0344 18.6874C23.0381 18.5967 23.0174 18.5063 22.9736 18.4218C22.9298 18.3374 22.8639 18.2606 22.7799 18.1962C22.6958 18.1318 22.5954 18.0812 22.4848 18.0474C22.3742 18.0136 22.2557 17.9974 22.1365 17.9997C22.0174 18.002 21.9001 18.0228 21.7919 18.0608C21.6837 18.0988 21.5868 18.1533 21.5071 18.2208L16.8744 21.7383V8.70833C16.8817 8.61741 16.8645 8.5263 16.8239 8.44063C16.7832 8.35495 16.72 8.27653 16.6381 8.21017C16.5562 8.14381 16.4573 8.09094 16.3476 8.05479C16.2378 8.01865 16.1196 8 16 8C15.8804 8 15.7622 8.01865 15.6524 8.05479C15.5427 8.09094 15.4438 8.14381 15.3619 8.21017C15.28 8.27653 15.2168 8.35495 15.1761 8.44063C15.1355 8.5263 15.1183 8.61741 15.1256 8.70833V21.7908L10.4961 18.2233C10.3319 18.0986 10.1095 18.0286 9.87767 18.0286C9.64581 18.0286 9.42341 18.0986 9.2592 18.2233C9.17711 18.2846 9.11189 18.3577 9.06738 18.4384C9.02287 18.5191 8.99996 18.6058 9 18.6933C9 18.8692 9.09074 19.038 9.25264 19.1633L15.3389 23.8433C15.4203 23.9055 15.5169 23.9548 15.6233 23.9884C15.7297 24.022 15.8438 24.0393 15.959 24.0393C16.0742 24.0393 16.1883 24.022 16.2947 23.9884C16.4011 23.9548 16.4977 23.9055 16.5791 23.8433V23.8458Z" fill="#35353D"/>
</svg>
