<svg width="32" height="33" viewBox="0 0 32 33" fill="none" xmlns="http://www.w3.org/2000/svg">
<path d="M15.5337 8.19351L9.36867 12.8735C9.21023 12.9994 9.12278 13.1676 9.12504 13.342C9.1273 13.5165 9.21909 13.6833 9.38076 13.8068C9.54243 13.9303 9.76113 14.0007 9.99006 14.0029C10.219 14.0051 10.4399 13.9389 10.6056 13.8185L15.2384 10.301V23.331C15.2311 23.4219 15.2482 23.513 15.2889 23.5987C15.3295 23.6844 15.3927 23.7628 15.4746 23.8292C15.5566 23.8955 15.6554 23.9484 15.7652 23.9846C15.8749 24.0207 15.9932 24.0393 16.1128 24.0393C16.2323 24.0393 16.3506 24.0207 16.4603 23.9846C16.5701 23.9484 16.6689 23.8955 16.7509 23.8292C16.8328 23.7628 16.896 23.6844 16.9366 23.5987C16.9773 23.513 16.9944 23.4219 16.9871 23.331V10.2485L21.6166 13.816C21.6958 13.8839 21.7923 13.9387 21.9003 13.9772C22.0082 14.0157 22.1254 14.0369 22.2445 14.0397C22.3636 14.0425 22.4822 14.0268 22.5931 13.9934C22.7039 13.9601 22.8047 13.9098 22.8892 13.8458C22.9736 13.7817 23.0401 13.7052 23.0845 13.621C23.1288 13.5367 23.1501 13.4464 23.1471 13.3556C23.1441 13.2648 23.1168 13.1755 23.0669 13.093C23.017 13.0105 22.9455 12.9367 22.8568 12.876L16.7739 8.19601C16.6925 8.13388 16.5958 8.08458 16.4894 8.05095C16.383 8.01731 16.269 8 16.1538 8C16.0386 8 15.9245 8.01731 15.8181 8.05095C15.7117 8.08458 15.615 8.13388 15.5337 8.19601V8.19351Z" fill="#35353D"/>
</svg>
