<svg width="18" height="19" viewBox="0 0 18 19" fill="none" xmlns="http://www.w3.org/2000/svg">
<path d="M16.5516 14.0422L13.6294 4.3756C13.5526 4.14442 13.404 3.94386 13.2051 3.80318C13.0062 3.66252 12.7676 3.58912 12.5241 3.59373H11.2753C10.9816 3.58678 10.6969 3.69501 10.4819 3.89523C10.267 4.09548 10.1389 4.37186 10.125 4.66529V14.3347C10.1389 14.6281 10.267 14.9045 10.4819 15.1047C10.6969 15.305 10.9816 15.4132 11.2753 15.4062H15.4434C15.626 15.4082 15.8065 15.3675 15.9705 15.2875C16.1346 15.2074 16.2777 15.0901 16.3884 14.945C16.4848 14.818 16.5498 14.67 16.5781 14.5131C16.6065 14.3562 16.5974 14.1949 16.5516 14.0422Z" fill="black"/>
<path d="M3.93756 14.8438H2.56787C2.49328 14.8438 2.42174 14.8734 2.369 14.9261C2.31625 14.9789 2.28662 15.0504 2.28662 15.125C2.28662 15.1996 2.31625 15.2711 2.369 15.3239C2.42174 15.3766 2.49328 15.4062 2.56787 15.4062H3.93756C4.01215 15.4062 4.0837 15.3766 4.13643 15.3239C4.18916 15.2711 4.21881 15.1996 4.21881 15.125C4.21881 15.0504 4.18916 14.9789 4.13643 14.9261C4.0837 14.8734 4.01215 14.8438 3.93756 14.8438Z" fill="black"/>
<path d="M4.55916 4.71872C4.48828 4.69759 4.41195 4.70524 4.3467 4.73998C4.28142 4.77471 4.23246 4.83377 4.21041 4.90434L3.81103 6.22903C3.78991 6.29987 3.79756 6.37621 3.83229 6.44148C3.86703 6.50676 3.92606 6.55573 3.99666 6.57778C4.02298 6.58647 4.05049 6.59119 4.07822 6.59184C4.14097 6.59434 4.20276 6.57575 4.25372 6.53905C4.30471 6.50235 4.34192 6.44964 4.35947 6.38934L4.75884 5.06747C4.76902 5.03144 4.77192 4.99375 4.76736 4.95662C4.76281 4.91947 4.75088 4.88361 4.73229 4.85113C4.71367 4.81864 4.68878 4.79021 4.65906 4.76746C4.62933 4.74473 4.59535 4.72817 4.55916 4.71872Z" fill="black"/>
<path d="M2.16292 12.6528C2.09169 12.6318 2.01504 12.6398 1.9497 12.6751C1.88437 12.7104 1.83565 12.7701 1.81417 12.8412L1.44854 14.0422C1.43217 14.0982 1.42087 14.1557 1.41479 14.2137C1.40606 14.2875 1.42688 14.3618 1.47273 14.4203C1.51858 14.4788 1.58572 14.5168 1.65948 14.5259H1.68761C1.75628 14.5265 1.82279 14.5019 1.8746 14.4569C1.9264 14.4118 1.95993 14.3493 1.96886 14.2812C1.97179 14.2554 1.97744 14.2299 1.98573 14.2053L2.34854 13.0044C2.37051 12.9331 2.3633 12.8561 2.32849 12.7902C2.29369 12.7242 2.23413 12.6748 2.16292 12.6528Z" fill="black"/>
<path d="M3.19792 9.21873C3.23339 9.22956 3.27062 9.23327 3.30752 9.22964C3.34442 9.22602 3.38023 9.21513 3.41291 9.19764C3.44556 9.18012 3.47445 9.15632 3.4979 9.12761C3.52133 9.09889 3.53888 9.06582 3.54948 9.03029L3.93761 7.71404C3.94844 7.67861 3.95215 7.64134 3.94852 7.60447C3.94489 7.56757 3.93401 7.53177 3.91651 7.49908C3.89899 7.4664 3.8752 7.43752 3.84648 7.41409C3.81777 7.39064 3.78469 7.37311 3.74917 7.36248C3.67796 7.3415 3.60132 7.34952 3.53596 7.38481C3.47062 7.42014 3.42191 7.47985 3.40042 7.55092L3.00105 8.87279C2.99123 8.90846 2.98856 8.94567 2.99314 8.98237C2.99773 9.01904 3.00948 9.05445 3.02776 9.0866C3.04607 9.11872 3.07051 9.14693 3.09971 9.1696C3.1289 9.19229 3.16229 9.20897 3.19792 9.21873Z" fill="black"/>
<path d="M5.21438 4.19282C5.24048 4.19693 5.26703 4.19693 5.29313 4.19282C5.35259 4.17595 5.41412 4.16745 5.47594 4.16751H6.60094C6.67553 4.16751 6.74708 4.1379 6.79981 4.08513C6.85255 4.0324 6.88219 3.96088 6.88219 3.88626C6.88219 3.81167 6.85255 3.74015 6.79981 3.68739C6.74708 3.63465 6.67553 3.60501 6.60094 3.60501H5.47594C5.36178 3.60532 5.24819 3.62141 5.13844 3.65282C5.10272 3.66289 5.06937 3.67988 5.04026 3.70289C5.01115 3.72589 4.98688 3.75441 4.96882 3.78681C4.95079 3.81924 4.93934 3.8549 4.93515 3.89177C4.93096 3.92862 4.93409 3.96594 4.94438 4.00157C4.96339 4.05791 4.99979 4.10676 5.04827 4.1411C5.09679 4.17547 5.15495 4.19358 5.21438 4.19282Z" fill="black"/>
<path d="M2.399 11.8681C2.42604 11.8721 2.45351 11.8721 2.48056 11.8681C2.54332 11.8706 2.60511 11.852 2.65608 11.8153C2.70705 11.7786 2.74427 11.7259 2.76181 11.6656L3.16118 10.3438C3.17766 10.2741 3.167 10.2008 3.13134 10.1388C3.09568 10.0767 3.03768 10.0306 2.96923 10.0098C2.90074 9.98901 2.82692 9.99512 2.76278 10.0268C2.69864 10.0586 2.64901 10.1136 2.624 10.1806L2.21337 11.5194C2.19226 11.5902 2.1999 11.6666 2.23464 11.7318C2.26938 11.7971 2.32842 11.8461 2.399 11.8681Z" fill="black"/>
<path d="M7.57127 4.33059C7.4971 4.33635 7.42825 4.37123 7.37977 4.42762C7.33125 4.48404 7.30709 4.55733 7.31252 4.63152V5.99277C7.31252 6.06736 7.34213 6.13891 7.3949 6.19165C7.44763 6.24438 7.51918 6.27402 7.59377 6.27402C7.66836 6.27402 7.73991 6.24438 7.79264 6.19165C7.84537 6.13891 7.87502 6.06736 7.87502 5.99277V4.66527C7.87642 4.63999 7.87642 4.61462 7.87502 4.58934C7.87218 4.55235 7.86205 4.5163 7.84523 4.48325C7.82839 4.4502 7.80521 4.42081 7.77697 4.39676C7.74874 4.37272 7.71603 4.35449 7.68073 4.34313C7.64543 4.33177 7.60822 4.32752 7.57127 4.33059Z" fill="black"/>
<path d="M7.59375 7.09247C7.51916 7.09247 7.44761 7.12211 7.39488 7.17485C7.34214 7.22761 7.3125 7.29913 7.3125 7.37372V8.75466C7.3125 8.82927 7.34214 8.90079 7.39488 8.95353C7.44761 9.00629 7.51916 9.03591 7.59375 9.03591C7.66834 9.03591 7.73989 9.00629 7.79262 8.95353C7.84536 8.90079 7.875 8.82927 7.875 8.75466V7.37372C7.875 7.29913 7.84536 7.22761 7.79262 7.17485C7.73989 7.12211 7.66834 7.09247 7.59375 7.09247Z" fill="black"/>
<path d="M7.59375 9.85718C7.51916 9.85718 7.44761 9.88682 7.39488 9.93956C7.34214 9.99229 7.3125 10.0638 7.3125 10.1384V11.5194C7.3125 11.594 7.34214 11.6655 7.39488 11.7182C7.44761 11.771 7.51916 11.8006 7.59375 11.8006C7.66834 11.8006 7.73989 11.771 7.79262 11.7182C7.84536 11.6655 7.875 11.594 7.875 11.5194V10.1384C7.875 10.0638 7.84536 9.99229 7.79262 9.93956C7.73989 9.88682 7.66834 9.85718 7.59375 9.85718Z" fill="black"/>
<path d="M6.6993 14.8438H5.31836C5.24377 14.8438 5.17225 14.8734 5.11949 14.9261C5.06675 14.9789 5.03711 15.0504 5.03711 15.125C5.03711 15.1996 5.06675 15.2711 5.11949 15.3239C5.17225 15.3766 5.24377 15.4062 5.31836 15.4062H6.6993C6.77391 15.4062 6.84543 15.3766 6.89817 15.3239C6.95093 15.2711 6.98055 15.1996 6.98055 15.125C6.98055 15.0504 6.95093 14.9789 6.89817 14.9261C6.84543 14.8734 6.77391 14.8438 6.6993 14.8438Z" fill="black"/>
<path d="M7.59375 12.6191C7.51916 12.6191 7.44761 12.6487 7.39488 12.7015C7.34214 12.7542 7.3125 12.8257 7.3125 12.9003V14.2813C7.3125 14.3559 7.34214 14.4274 7.39488 14.4801C7.44761 14.5329 7.51916 14.5625 7.59375 14.5625C7.66834 14.5625 7.73989 14.5329 7.79262 14.4801C7.84536 14.4274 7.875 14.3559 7.875 14.2813V12.9003C7.875 12.8257 7.84536 12.7542 7.79262 12.7015C7.73989 12.6487 7.66834 12.6191 7.59375 12.6191Z" fill="black"/>
<path d="M9 2.75C8.92541 2.75 8.85386 2.77963 8.80113 2.83238C8.74839 2.88512 8.71875 2.95666 8.71875 3.03125V15.9688C8.71875 16.0433 8.74839 16.1149 8.80113 16.1676C8.85386 16.2204 8.92541 16.25 9 16.25C9.07459 16.25 9.14614 16.2204 9.19887 16.1676C9.25161 16.1149 9.28125 16.0433 9.28125 15.9688V3.03125C9.28125 2.95666 9.25161 2.88512 9.19887 2.83238C9.14614 2.77963 9.07459 2.75 9 2.75Z" fill="black"/>
</svg>
