<svg width="18" height="19" viewBox="0 0 18 19" fill="none" xmlns="http://www.w3.org/2000/svg">
<path d="M13.8348 10.625H4.16538C3.87196 10.6389 3.59557 10.767 3.39532 10.9819C3.1951 11.1969 3.08687 11.4816 3.09382 11.7753V15.9434C3.09185 16.126 3.13252 16.3065 3.21259 16.4705C3.29266 16.6346 3.40995 16.7777 3.55507 16.8884C3.73102 17.0209 3.94514 17.0929 4.16538 17.0938C4.26059 17.0923 4.3552 17.0781 4.44663 17.0516L14.1244 14.1294C14.3556 14.0526 14.5562 13.904 14.6969 13.7051C14.8375 13.5062 14.9109 13.2676 14.9063 13.0241V11.7753C14.9133 11.4816 14.805 11.1969 14.6048 10.9819C14.4046 10.767 14.1282 10.6389 13.8348 10.625Z" fill="black"/>
<path d="M12.1079 4.84814L13.4326 5.24752C13.4596 5.25182 13.4871 5.25182 13.5141 5.24752C13.5887 5.25832 13.6646 5.23908 13.725 5.19396C13.7854 5.14888 13.8253 5.08163 13.8362 5.00705C13.847 4.93246 13.8277 4.85661 13.7826 4.79622C13.7375 4.73584 13.6703 4.69584 13.5957 4.68502L12.271 4.28564C12.2002 4.26452 12.1238 4.27217 12.0586 4.3069C11.9933 4.34164 11.9443 4.4007 11.9223 4.47127C11.9073 4.50802 11.9004 4.54754 11.9018 4.5872C11.9032 4.62682 11.913 4.66575 11.9306 4.70133C11.9481 4.73693 11.973 4.76841 12.0035 4.79372C12.0341 4.819 12.0696 4.83757 12.1079 4.84814Z" fill="black"/>
<path d="M9.464 4.04936L10.7859 4.43749C10.8213 4.44832 10.8586 4.45203 10.8955 4.4484C10.9324 4.44477 10.9682 4.43389 11.0009 4.41637C11.0335 4.39887 11.0624 4.37508 11.0859 4.34636C11.1093 4.31765 11.1268 4.28457 11.1374 4.24905C11.1584 4.17781 11.1504 4.10117 11.1151 4.03584C11.0798 3.9705 11.0201 3.92179 10.949 3.9003L9.62712 3.50093C9.59115 3.48751 9.55279 3.4816 9.51442 3.48355C9.47606 3.48551 9.43851 3.49533 9.40409 3.51235C9.36966 3.52939 9.33909 3.5533 9.31426 3.5826C9.28942 3.61188 9.27086 3.64597 9.2597 3.68273C9.24853 3.71946 9.24501 3.75813 9.24937 3.79627C9.25373 3.83443 9.26586 3.8713 9.28498 3.9046C9.30413 3.9379 9.3299 3.96693 9.36066 3.98991C9.39146 4.01286 9.42662 4.02928 9.464 4.03811V4.04936Z" fill="black"/>
<path d="M6.98071 7.8125C6.90613 7.8125 6.83458 7.84214 6.78184 7.89488C6.72908 7.94761 6.69946 8.01916 6.69946 8.09375C6.69946 8.16834 6.72908 8.23989 6.78184 8.29262C6.83458 8.34536 6.90613 8.375 6.98071 8.375H8.36165C8.43624 8.375 8.50776 8.34536 8.56052 8.29262C8.61326 8.23989 8.6429 8.16834 8.6429 8.09375C8.6429 8.01916 8.61326 7.94761 8.56052 7.89488C8.50776 7.84214 8.43624 7.8125 8.36165 7.8125H6.98071Z" fill="black"/>
<path d="M14.3437 5.97595V7.10095C14.3437 7.17554 14.3733 7.24706 14.4261 7.29982C14.4788 7.35256 14.5504 7.3822 14.625 7.3822C14.6996 7.3822 14.7711 7.35256 14.8238 7.29982C14.8766 7.24706 14.9062 7.17554 14.9062 7.10095V5.97595C14.9059 5.86176 14.8898 5.7482 14.8584 5.63845C14.8381 5.56696 14.7903 5.50641 14.7255 5.47004C14.6607 5.43367 14.5841 5.42445 14.5125 5.44439C14.4768 5.45443 14.4434 5.47145 14.4143 5.49442C14.3852 5.51743 14.3609 5.54595 14.3429 5.57838C14.3248 5.61078 14.3134 5.64644 14.3092 5.68331C14.305 5.72016 14.3081 5.75748 14.3184 5.79314C14.3353 5.8526 14.3438 5.91413 14.3437 5.97595Z" fill="black"/>
<path d="M12.2258 8.09382C12.2258 8.1684 12.2554 8.23995 12.3082 8.29269C12.3609 8.34545 12.4325 8.37507 12.5071 8.37507H13.9133C13.9875 8.36933 14.0563 8.33443 14.1048 8.27803C14.1533 8.22162 14.1775 8.14832 14.1721 8.07413C14.1696 8.03692 14.1597 8.00055 14.1431 7.96717C14.1264 7.93381 14.1032 7.90409 14.075 7.87976C14.0467 7.8554 14.0139 7.83692 13.9784 7.82539C13.9429 7.81386 13.9055 7.8095 13.8683 7.81257H12.5071C12.4325 7.81257 12.3609 7.84221 12.3082 7.89494C12.2554 7.94768 12.2258 8.01923 12.2258 8.09382Z" fill="black"/>
<path d="M9.74536 7.8125C9.67077 7.8125 9.59922 7.84214 9.54649 7.89488C9.49376 7.94761 9.46411 8.01916 9.46411 8.09375C9.46411 8.16834 9.49376 8.23989 9.54649 8.29262C9.59922 8.34536 9.67077 8.375 9.74536 8.375H11.1263C11.2009 8.375 11.2724 8.34536 11.3252 8.29262C11.3779 8.23989 11.4075 8.16834 11.4075 8.09375C11.4075 8.01916 11.3779 7.94761 11.3252 7.89488C11.2724 7.84214 11.2009 7.8125 11.1263 7.8125H9.74536Z" fill="black"/>
<path d="M3.375 4.71874C3.44959 4.71874 3.52114 4.68913 3.57387 4.63639C3.62661 4.58363 3.65625 4.51211 3.65625 4.43749V3.04532C3.65625 2.97073 3.62661 2.89919 3.57387 2.84644C3.52114 2.7937 3.44959 2.76407 3.375 2.76407C3.30041 2.76407 3.22886 2.7937 3.17613 2.84644C3.12339 2.89919 3.09375 2.97073 3.09375 3.04532V4.43749C3.09375 4.51211 3.12339 4.58363 3.17613 4.63639C3.22886 4.68913 3.30041 4.71874 3.375 4.71874Z" fill="black"/>
<path d="M3.375 7.48067C3.44959 7.48067 3.52114 7.45103 3.57387 7.39829C3.62661 7.34553 3.65625 7.27401 3.65625 7.19942V5.81848C3.65625 5.74387 3.62661 5.67234 3.57387 5.61958C3.52114 5.56685 3.44959 5.53723 3.375 5.53723C3.30041 5.53723 3.22886 5.56685 3.17613 5.61958C3.12339 5.67234 3.09375 5.74387 3.09375 5.81848V7.19942C3.09375 7.27401 3.12339 7.34553 3.17613 7.39829C3.22886 7.45103 3.30041 7.48067 3.375 7.48067Z" fill="black"/>
<path d="M6.82039 3.25064L8.15633 3.65001C8.18336 3.65431 8.21089 3.65431 8.23789 3.65001C8.27482 3.65535 8.31245 3.65338 8.34862 3.64421C8.38482 3.63502 8.41882 3.61879 8.44872 3.59646C8.47862 3.57416 8.50384 3.54614 8.52291 3.51408C8.54201 3.48199 8.55458 3.44647 8.55993 3.40954C8.5653 3.37261 8.56333 3.33498 8.55413 3.29881C8.54494 3.26263 8.52874 3.22863 8.5064 3.19872C8.48407 3.16882 8.45606 3.14361 8.424 3.12453C8.39191 3.10544 8.35639 3.09287 8.31946 3.08751L6.98071 2.71345C6.94448 2.6993 6.90573 2.69283 6.86689 2.69442C6.82804 2.69601 6.78994 2.70564 6.755 2.72271C6.72007 2.73977 6.68905 2.76389 6.66391 2.79354C6.63876 2.8232 6.62003 2.85775 6.60892 2.89501C6.59779 2.93226 6.59452 2.97142 6.5993 3.01001C6.60409 3.0486 6.6168 3.08577 6.63668 3.11919C6.65657 3.15261 6.68314 3.18154 6.71476 3.20417C6.7464 3.22679 6.78237 3.24261 6.82039 3.25064Z" fill="black"/>
<path d="M4.21875 8.375H5.59969C5.67427 8.375 5.74582 8.34536 5.79856 8.29262C5.85129 8.23989 5.88094 8.16834 5.88094 8.09375C5.88094 8.01916 5.85129 7.94761 5.79856 7.89488C5.74582 7.84214 5.67427 7.8125 5.59969 7.8125H4.21875C4.14416 7.8125 4.07261 7.84214 4.01988 7.89488C3.96714 7.94761 3.9375 8.01916 3.9375 8.09375C3.9375 8.16834 3.96714 8.23989 4.01988 8.29262C4.07261 8.34536 4.14416 8.375 4.21875 8.375Z" fill="black"/>
<path d="M4.21876 2.46879C4.24458 2.47171 4.27004 2.47737 4.2947 2.48566L5.49564 2.84847C5.53108 2.85929 5.56834 2.863 5.60521 2.85937C5.64211 2.85575 5.67792 2.84487 5.7106 2.82736C5.74328 2.80985 5.77216 2.78605 5.79559 2.75733C5.81905 2.72862 5.83657 2.69555 5.8472 2.66004C5.86818 2.5888 5.86017 2.51215 5.82487 2.44682C5.78955 2.38148 5.72984 2.33276 5.65876 2.31129L4.45783 1.94566C4.40194 1.92738 4.34451 1.9142 4.28626 1.90629C4.21168 1.89733 4.13658 1.91838 4.07749 1.9648C4.01843 2.01121 3.98021 2.07919 3.97126 2.15379C3.96229 2.22838 3.98336 2.30347 4.02976 2.36254C4.07617 2.42162 4.14418 2.45983 4.21876 2.46879Z" fill="black"/>
<path d="M15.4688 9.21875H2.53125C2.45666 9.21875 2.38512 9.24839 2.33238 9.30113C2.27963 9.35386 2.25 9.42541 2.25 9.5C2.25 9.57459 2.27963 9.64614 2.33238 9.69887C2.38512 9.75161 2.45666 9.78125 2.53125 9.78125H15.4688C15.5433 9.78125 15.6149 9.75161 15.6676 9.69887C15.7204 9.64614 15.75 9.57459 15.75 9.5C15.75 9.42541 15.7204 9.35386 15.6676 9.30113C15.6149 9.24839 15.5433 9.21875 15.4688 9.21875Z" fill="black"/>
</svg>
