<svg width="34" height="19" viewBox="0 0 34 19" fill="none" xmlns="http://www.w3.org/2000/svg">
<path d="M19.8125 9.57633H18.0603C17.9334 9.02192 17.6222 8.52699 17.1774 8.17251C16.7327 7.81803 16.1808 7.625 15.612 7.625C15.0433 7.625 14.4914 7.81803 14.0466 8.17251C13.6019 8.52699 13.2906 9.02192 13.1637 9.57633H4.0625C3.91332 9.57633 3.77024 9.63559 3.66475 9.74108C3.55926 9.84657 3.5 9.98964 3.5 10.1388C3.5 10.288 3.55926 10.4311 3.66475 10.5366C3.77024 10.6421 3.91332 10.7013 4.0625 10.7013H13.1637C13.2906 11.2557 13.6019 11.7507 14.0466 12.1051C14.4914 12.4596 15.0433 12.6527 15.612 12.6527C16.1808 12.6527 16.7327 12.4596 17.1774 12.1051C17.6222 11.7507 17.9334 11.2557 18.0603 10.7013H19.8125C19.9617 10.7013 20.1048 10.6421 20.2102 10.5366C20.3157 10.4311 20.375 10.288 20.375 10.1388C20.375 9.98964 20.3157 9.84657 20.2102 9.74108C20.1048 9.63559 19.9617 9.57633 19.8125 9.57633ZM15.6106 11.5282C15.3358 11.5282 15.0672 11.4467 14.8387 11.294C14.6102 11.1414 14.4322 10.9244 14.327 10.6705C14.2219 10.4166 14.1943 10.1373 14.2479 9.86777C14.3016 9.59826 14.4339 9.3507 14.6282 9.15639C14.8225 8.96208 15.0701 8.82976 15.3396 8.77615C15.6091 8.72254 15.8884 8.75005 16.1423 8.85521C16.3962 8.96037 16.6132 9.13845 16.7658 9.36693C16.9185 9.59541 17 9.86403 17 10.1388C17 10.5073 16.8536 10.8607 16.5931 11.1213C16.3325 11.3818 15.9791 11.5282 15.6106 11.5282Z" fill="black"/>
<path d="M4.0625 5.07633H5.58687C5.71374 5.63073 6.02501 6.12567 6.46977 6.48014C6.91452 6.83462 7.46642 7.02765 8.03516 7.02765C8.60389 7.02765 9.15579 6.83462 9.60054 6.48014C10.0453 6.12567 10.3566 5.63073 10.4834 5.07633H19.8125C19.9617 5.07633 20.1048 5.01706 20.2102 4.91157C20.3157 4.80608 20.375 4.66301 20.375 4.51383C20.375 4.36464 20.3157 4.22157 20.2102 4.11608C20.1048 4.01059 19.9617 3.95133 19.8125 3.95133H10.4834C10.3566 3.39692 10.0453 2.90199 9.60054 2.54751C9.15579 2.19303 8.60389 2 8.03516 2C7.46642 2 6.91452 2.19303 6.46977 2.54751C6.02501 2.90199 5.71374 3.39692 5.58687 3.95133H4.0625C3.91332 3.95133 3.77024 4.01059 3.66475 4.11608C3.55926 4.22157 3.5 4.36464 3.5 4.51383C3.5 4.66301 3.55926 4.80608 3.66475 4.91157C3.77024 5.01706 3.91332 5.07633 4.0625 5.07633ZM8.03656 3.12445C8.40456 3.1252 8.75723 3.2719 9.01718 3.53238C9.27713 3.79286 9.42313 4.14583 9.42312 4.51383C9.40704 4.87113 9.25378 5.20847 8.99524 5.45562C8.73671 5.70277 8.39282 5.84071 8.03516 5.84071C7.67749 5.84071 7.3336 5.70277 7.07507 5.45562C6.81654 5.20847 6.66328 4.87113 6.64719 4.51383C6.64719 4.14534 6.79357 3.79195 7.05413 3.53139C7.31468 3.27083 7.66808 3.12445 8.03656 3.12445Z" fill="black"/>
<path d="M19.8125 15.2013H12.9809C12.8541 14.6469 12.5428 14.152 12.098 13.7975C11.6533 13.443 11.1014 13.25 10.5327 13.25C9.96392 13.25 9.41202 13.443 8.96727 13.7975C8.52251 14.152 8.21124 14.6469 8.08437 15.2013H4.0625C3.91332 15.2013 3.77024 15.2606 3.66475 15.3661C3.55926 15.4716 3.5 15.6146 3.5 15.7638C3.5 15.913 3.55926 16.0561 3.66475 16.1616C3.77024 16.2671 3.91332 16.3263 4.0625 16.3263H8.08437C8.21124 16.8807 8.52251 17.3757 8.96727 17.7301C9.41202 18.0846 9.96392 18.2777 10.5327 18.2777C11.1014 18.2777 11.6533 18.0846 12.098 17.7301C12.5428 17.3757 12.8541 16.8807 12.9809 16.3263H19.8125C19.9617 16.3263 20.1048 16.2671 20.2102 16.1616C20.3157 16.0561 20.375 15.913 20.375 15.7638C20.375 15.6146 20.3157 15.4716 20.2102 15.3661C20.1048 15.2606 19.9617 15.2013 19.8125 15.2013ZM10.5312 17.1532C10.2565 17.1532 9.98784 17.0717 9.75935 16.919C9.53087 16.7664 9.35279 16.5494 9.24763 16.2955C9.14248 16.0416 9.11496 15.7623 9.16857 15.4928C9.22218 15.2233 9.35451 14.9757 9.54881 14.7814C9.74312 14.5871 9.99068 14.4548 10.2602 14.4011C10.5297 14.3475 10.8091 14.3751 11.0629 14.4802C11.3168 14.5854 11.5338 14.7634 11.6865 14.9919C11.8391 15.2204 11.9206 15.489 11.9206 15.7638C11.9206 16.1323 11.7742 16.4857 11.5137 16.7463C11.2531 17.0068 10.8997 17.1532 10.5312 17.1532Z" fill="black"/>
<path d="M28.5 12L24.1699 8.25L32.8301 8.25L28.5 12Z" fill="black"/>
</svg>
