<svg width="32" height="32" viewBox="0 0 32 32" fill="none" xmlns="http://www.w3.org/2000/svg">
<path d="M22.4175 11.9891L18.0936 7.62608C17.937 7.46956 17.7414 7.3913 17.5262 7.3913H10.1305C9.70007 7.3913 9.3479 7.74347 9.3479 8.17391V23.8261C9.3479 24.2565 9.70007 24.6087 10.1305 24.6087H21.8696C22.3001 24.6087 22.6522 24.2565 22.6522 23.8261V12.5369C22.6522 12.3217 22.574 12.1261 22.4175 11.9891ZM21.087 12.8696H17.174V8.95651H17.2131L21.087 12.8696ZM10.9131 23.0435V8.95651H15.6088V13.6326C15.6088 14.063 15.9414 14.4348 16.3718 14.4348H21.087V23.0435H10.9131Z" fill="black"/>
</svg>
