<svg width="33" height="34" viewBox="0 0 33 34" fill="none" xmlns="http://www.w3.org/2000/svg">
<path d="M28 19L23.6699 15.25L32.3301 15.25L28 19Z" fill="black"/>
<path d="M16.886 14.4572C16.886 13.0098 16.3712 11.6218 15.4549 10.5984C14.5386 9.57495 13.2958 9 12 9C10.7041 9 9.4614 9.57495 8.5451 10.5984C7.62882 11.6218 7.11405 13.0098 7.11405 14.4572C6.45475 14.7437 5.85903 15.1868 5.36806 15.7557C4.8771 16.3246 4.50261 17.0058 4.27049 17.7523C4.03836 18.4987 3.95414 19.2926 4.02363 20.0789C4.09313 20.8653 4.31469 21.6254 4.67299 22.3067C5.0313 22.988 5.51781 23.5744 6.09888 24.0251C6.67996 24.4758 7.34174 24.7802 8.03848 24.9173C8.73523 25.0543 9.45028 25.0208 10.1343 24.8189C10.8183 24.617 11.4549 24.2516 12 23.748C12.5452 24.2516 13.1817 24.617 13.8657 24.8189C14.5497 25.0208 15.2647 25.0543 15.9615 24.9173C16.6583 24.7802 17.32 24.4758 17.9011 24.0251C18.4822 23.5744 18.9687 22.988 19.327 22.3067C19.6853 21.6254 19.9069 20.8653 19.9764 20.0789C20.0459 19.2926 19.9616 18.4987 19.7295 17.7523C19.4974 17.0058 19.1229 16.3246 18.6319 15.7557C18.141 15.1868 17.5452 14.7437 16.886 14.4572ZM12 10.6303C12.7248 10.6303 13.4332 10.8704 14.0359 11.3201C14.6385 11.7698 15.1081 12.4091 15.3855 13.157C15.6629 13.9048 15.7354 14.7277 15.594 15.5217C15.4527 16.3156 15.1036 17.0449 14.5911 17.6173C14.0787 18.1897 13.4257 18.5795 12.7149 18.7375C12.004 18.8954 11.2672 18.8143 10.5977 18.5045C9.92807 18.1947 9.35574 17.6702 8.95308 16.9971C8.55048 16.324 8.33556 15.5327 8.33556 14.7232C8.33556 13.6377 8.72161 12.5967 9.40881 11.8291C10.096 11.0615 11.0281 10.6303 12 10.6303ZM5.28183 19.4983C5.28419 18.7571 5.46666 18.0306 5.80979 17.3963C6.15292 16.762 6.64382 16.2436 7.2301 15.8965C7.40019 16.7624 7.75657 17.5689 8.26842 18.2464C8.7803 18.9238 9.43221 19.4519 10.1678 19.7848C10.2139 20.862 10.5502 21.8987 11.1328 22.7589C10.5891 23.2104 9.94407 23.4847 9.26926 23.5514C8.59445 23.6181 7.91633 23.4746 7.31016 23.1368C6.70399 22.799 6.19353 22.28 5.83547 21.6377C5.47741 20.9954 5.28576 20.2548 5.28183 19.4983ZM15.0537 23.5911C14.5654 23.5907 14.082 23.4812 13.632 23.2692C13.1821 23.0571 12.7747 22.7468 12.4336 22.3564C11.904 21.7515 11.558 20.976 11.4442 20.1395C11.6284 20.1669 11.8141 20.1805 12 20.1804C13.113 20.1799 14.1925 19.755 15.06 18.976C15.9273 18.197 16.5306 17.1106 16.7699 15.8965C17.4859 16.3281 18.0529 17.0135 18.3816 17.8448C18.7103 18.6761 18.782 19.6059 18.5853 20.4876C18.3886 21.3694 17.9348 22.153 17.2954 22.715C16.6559 23.2769 15.8673 23.5851 15.0537 23.5911Z" fill="black"/>
</svg>
