<svg width="32" height="32" viewBox="0 0 32 32" fill="none" xmlns="http://www.w3.org/2000/svg">
<g clip-path="url(#clip0_286_18977)">
<path d="M23.875 9.67188C23.7631 9.67188 23.6558 9.71632 23.5767 9.79544C23.4976 9.87454 23.4531 9.98187 23.4531 10.0938V23.425H10.0938C9.98187 23.425 9.87454 23.4694 9.79544 23.5486C9.71632 23.6277 9.67188 23.735 9.67188 23.8469C9.67188 23.9588 9.71632 24.0661 9.79544 24.1452C9.87454 24.2243 9.98187 24.2688 10.0938 24.2688H23.875C23.9869 24.2688 24.0942 24.2243 24.1733 24.1452C24.2524 24.0661 24.2969 23.9588 24.2969 23.8469V10.0938C24.2969 9.98187 24.2524 9.87454 24.1733 9.79544C24.0942 9.71632 23.9869 9.67188 23.875 9.67188Z" fill="black"/>
<path d="M22.2466 21.7966V8.125C22.2466 8.01311 22.2022 7.90581 22.1231 7.82669C22.044 7.74757 21.9366 7.70312 21.8248 7.70312H8.15601C8.04412 7.70312 7.93681 7.74757 7.8577 7.82669C7.77858 7.90581 7.73413 8.01311 7.73413 8.125V21.7937C7.73413 21.9056 7.77858 22.013 7.8577 22.0921C7.93681 22.1712 8.04412 22.2156 8.15601 22.2156H21.8248C21.9362 22.2156 22.043 22.1716 22.1221 22.0931C22.2011 22.0146 22.2459 21.908 22.2466 21.7966ZM8.57788 8.54969H21.4029V15.4066L18.0279 12.0316C17.9483 11.9524 17.8406 11.908 17.7283 11.908C17.6161 11.908 17.5084 11.9524 17.4288 12.0316L14.1916 15.2519L12.9626 13.8653C12.8932 13.7871 12.7972 13.7375 12.6932 13.7261C12.5893 13.7146 12.4848 13.7422 12.4001 13.8034L8.57788 16.5625V8.54969Z" fill="black"/>
<path d="M11.3342 9.44968C9.52012 9.50874 9.52012 12.1384 11.3342 12.1947C13.1482 12.1384 13.1482 9.50874 11.3342 9.44968Z" fill="black"/>
</g>
<defs>
<clipPath id="clip0_286_18977">
<rect width="18" height="18" fill="white" transform="translate(7 7)"/>
</clipPath>
</defs>
</svg>
