<svg width="35" height="33" viewBox="0 0 35 33" fill="none" xmlns="http://www.w3.org/2000/svg">
<path d="M29 19L24.6699 15.25L33.3301 15.25L29 19Z" fill="black"/>
<path d="M23.2187 25.7156C23.2326 25.6628 23.2392 25.608 23.2392 25.5512V19.7888C23.2392 18.8199 22.4366 18.0325 21.4499 18.0325H21.3239C21.1391 18.0325 20.9596 18.0596 20.7906 18.1104C20.5682 17.389 19.8844 16.8623 19.0779 16.8623H18.9518C18.7703 16.8623 18.5948 16.8887 18.4291 16.9376C18.2173 16.199 17.5256 15.6565 16.7065 15.6565H16.5805C16.4234 15.6565 16.2703 15.6757 16.1251 15.7133V12.771C16.1251 11.8021 15.3218 11.0147 14.3351 11.0147H14.2091C13.2224 11.0147 12.4198 11.8021 12.4198 12.771V20.9147L11.6859 20.2019C11.012 19.5459 9.84055 19.5479 9.16999 20.2L9.07891 20.2877C8.73637 20.6204 8.54761 21.0639 8.54761 21.5371C8.54761 22.0103 8.73637 22.4539 9.05053 22.7575L12.5162 26.561C12.8105 26.9036 13.2422 27.0996 13.6989 27.0996H21.6763C22.4762 27.0989 23.1376 26.4983 23.2187 25.7156ZM13.5035 25.6846L9.99697 21.8381C9.91315 21.7569 9.86695 21.6493 9.86695 21.5365C9.86695 21.4236 9.91315 21.316 9.99565 21.2362L10.0874 21.1477C10.1765 21.0606 10.2966 21.0131 10.426 21.0131C10.5553 21.0131 10.6754 21.0606 10.7652 21.1484L12.6198 22.9489C12.8099 23.133 13.0917 23.1858 13.3366 23.0828C13.5808 22.9799 13.7392 22.7396 13.7392 22.475V12.771C13.7392 12.5308 13.9497 12.3347 14.2084 12.3347H14.3345C14.5939 12.3347 14.8044 12.5308 14.8044 12.771V17.2445C14.8044 17.5883 15.0691 17.8754 15.4129 17.9025C15.7548 17.9302 16.0624 17.688 16.1158 17.3474C16.1495 17.1362 16.3495 16.9759 16.5798 16.9759H16.7059C16.9646 16.9759 17.1751 17.1719 17.1751 17.4121V18.4503C17.1751 18.7942 17.4398 19.0813 17.783 19.1083C18.1334 19.1347 18.4331 18.8945 18.4865 18.5539C18.5209 18.3421 18.7202 18.1817 18.9512 18.1817H19.0772C19.336 18.1817 19.5465 18.3777 19.5465 18.6186V19.6205C19.5465 19.9643 19.8112 20.2514 20.1544 20.2785C20.5061 20.3029 20.8045 20.0647 20.8579 19.7241C20.8922 19.5122 21.0916 19.3519 21.3226 19.3519H21.4499C21.7087 19.3519 21.9192 19.5479 21.9192 19.7881V25.4443C21.9113 25.4859 21.9067 25.5295 21.9067 25.5724C21.9067 25.6859 21.803 25.7783 21.675 25.7783H13.6982C13.6263 25.7789 13.5596 25.7499 13.5035 25.6846Z" fill="black"/>
<path d="M7.39917 12.0866C7.39917 12.4516 7.69419 12.7466 8.05917 12.7466H10.2682C10.6332 12.7466 10.9282 12.4516 10.9282 12.0866C10.9282 11.7216 10.6332 11.4266 10.2682 11.4266H8.05917C7.69419 11.4266 7.39917 11.7216 7.39917 12.0866Z" fill="black"/>
<path d="M14.9543 8.78328V6.63894C14.9543 6.27396 14.6593 5.97894 14.2943 5.97894C13.9293 5.97894 13.6343 6.27396 13.6343 6.63894V8.78328C13.6343 9.14826 13.9293 9.44328 14.2943 9.44328C14.6593 9.44328 14.9543 9.1476 14.9543 8.78328Z" fill="black"/>
<path d="M11.8352 10.5686C11.8398 10.5686 11.8451 10.5693 11.8484 10.5686C12.2133 10.5686 12.5084 10.2736 12.5084 9.90859C12.5084 9.68287 12.3955 9.48355 12.2226 9.36475L10.733 7.91935C10.4716 7.66525 10.0538 7.67185 9.79972 7.93321C9.54562 8.19457 9.55223 8.61235 9.81359 8.86645L11.3751 10.3825C11.5038 10.5066 11.6695 10.5686 11.8352 10.5686Z" fill="black"/>
<path d="M17.6055 12.0866C17.6055 12.4516 17.9005 12.7466 18.2655 12.7466H20.4745C20.8395 12.7466 21.1345 12.4516 21.1345 12.0866C21.1345 11.7216 20.8395 11.4266 20.4745 11.4266H18.2655C17.9005 11.4266 17.6055 11.7216 17.6055 12.0866Z" fill="black"/>
<path d="M17.8009 7.91868L16.2394 9.4347C15.978 9.6888 15.9714 10.1066 16.2255 10.3679C16.3549 10.5013 16.5271 10.5686 16.6994 10.5686C16.865 10.5686 17.0307 10.5065 17.1587 10.3825L18.721 8.86578C18.9823 8.61168 18.9876 8.1939 18.7342 7.93254C18.4807 7.67184 18.0623 7.66458 17.8009 7.91868Z" fill="black"/>
</svg>
