<svg width="33" height="18" viewBox="0 0 33 18" fill="none" xmlns="http://www.w3.org/2000/svg">
<g clip-path="url(#clip0_370_272)">
<path d="M5.25 16.125L0.375 17.625L1.875 12.75L11.4975 3.12674L14.8725 6.50174L5.25 16.125Z" stroke="black" stroke-linecap="round" stroke-linejoin="round"/>
<path d="M11.4976 3.12676L13.8121 0.812263C14.094 0.532335 14.4752 0.375244 14.8726 0.375244C15.2699 0.375244 15.6511 0.532335 15.9331 0.812263L17.1871 2.06626C17.4683 2.34755 17.6262 2.72902 17.6262 3.12676C17.6262 3.52451 17.4683 3.90597 17.1871 4.18726L14.8726 6.50176" stroke="black" stroke-linecap="round" stroke-linejoin="round"/>
<path d="M13.685 4L5 12.6857" stroke="black" stroke-linecap="round" stroke-linejoin="round"/>
<path d="M1.875 12.75L2.625 13.5H4.5V15.375L5.25 16.125" stroke="black" stroke-linecap="round" stroke-linejoin="round"/>
<path d="M1.125 15.375L2.625 16.875" stroke="black" stroke-linecap="round" stroke-linejoin="round"/>
<path d="M12.6226 2.00174L15.9976 5.37674" stroke="black" stroke-linecap="round" stroke-linejoin="round"/>
</g>
<path d="M28 11.5L23.6699 7.75L32.3301 7.75L28 11.5Z" fill="black"/>
<defs>
<clipPath id="clip0_370_272">
<rect width="18" height="18" fill="white"/>
</clipPath>
</defs>
</svg>
