<svg width="33" height="33" viewBox="0 0 33 33" fill="none" xmlns="http://www.w3.org/2000/svg">
<path d="M27 19L22.6699 15.25L31.3301 15.25L27 19Z" fill="black"/>
<path d="M3 22L11 17L3 12V22ZM3.57866 12.961L10.0452 17L3.57866 21.039V12.961Z" fill="black" stroke="black" stroke-width="1.2"/>
<path d="M13 17L21 22V12L13 17ZM20.4213 21.039L13.9548 17L20.4213 12.961V21.039Z" fill="black" stroke="black" stroke-width="1.2"/>
<path d="M12 17.7241C11.835 17.7241 11.7 17.856 11.7 18.0172V18.3103C11.7 18.4715 11.835 18.6034 12 18.6034C12.165 18.6034 12.3 18.4715 12.3 18.3103V18.0172C12.3 17.856 12.165 17.7241 12 17.7241Z" fill="black"/>
<path d="M12 22.1207C11.835 22.1207 11.7 22.2526 11.7 22.4138V22.7069C11.7 22.8681 11.835 23 12 23C12.165 23 12.3 22.8681 12.3 22.7069V22.4138C12.3 22.2526 12.165 22.1207 12 22.1207Z" fill="black"/>
<path d="M12 20.6552C11.835 20.6552 11.7 20.787 11.7 20.9483V21.2414C11.7 21.4026 11.835 21.5345 12 21.5345C12.165 21.5345 12.3 21.4026 12.3 21.2414V20.9483C12.3 20.787 12.165 20.6552 12 20.6552Z" fill="black"/>
<path d="M12 19.1897C11.835 19.1897 11.7 19.3216 11.7 19.4828V19.7759C11.7 19.9371 11.835 20.069 12 20.069C12.165 20.069 12.3 19.9371 12.3 19.7759V19.4828C12.3 19.3216 12.165 19.1897 12 19.1897Z" fill="black"/>
<path d="M12 10.3966C11.835 10.3966 11.7 10.5285 11.7 10.6897V10.9828C11.7 11.144 11.835 11.2759 12 11.2759C12.165 11.2759 12.3 11.144 12.3 10.9828V10.6897C12.3 10.5285 12.165 10.3966 12 10.3966Z" fill="black"/>
<path d="M12 11.8621C11.835 11.8621 11.7 11.994 11.7 12.1552V12.4483C11.7 12.6095 11.835 12.7414 12 12.7414C12.165 12.7414 12.3 12.6095 12.3 12.4483V12.1552C12.3 11.994 12.165 11.8621 12 11.8621Z" fill="black"/>
<path d="M12 8.93103C11.835 8.93103 11.7 9.06293 11.7 9.22413V9.51724C11.7 9.67844 11.835 9.81034 12 9.81034C12.165 9.81034 12.3 9.67844 12.3 9.51724V9.22413C12.3 9.06293 12.165 8.93103 12 8.93103Z" fill="black"/>
<path d="M12 16.2587C11.835 16.2587 11.7 16.3906 11.7 16.5518V16.8449C11.7 17.0061 11.835 17.138 12 17.138C12.165 17.138 12.3 17.0061 12.3 16.8449V16.5518C12.3 16.3906 12.165 16.2587 12 16.2587Z" fill="black"/>
<path d="M12 14.7931C11.835 14.7931 11.7 14.925 11.7 15.0862V15.3793C11.7 15.5405 11.835 15.6724 12 15.6724C12.165 15.6724 12.3 15.5405 12.3 15.3793V15.0862C12.3 14.925 12.165 14.7931 12 14.7931Z" fill="black"/>
<path d="M12 13.3276C11.835 13.3276 11.7 13.4595 11.7 13.6207V13.9138C11.7 14.0751 11.835 14.2069 12 14.2069C12.165 14.2069 12.3 14.0751 12.3 13.9138V13.6207C12.3 13.4595 12.165 13.3276 12 13.3276Z" fill="black"/>
<path d="M6.18734 11.0829C6.34034 11.1416 6.51434 11.0712 6.57734 10.9188C7.39334 8.92569 9.40934 7.58621 11.5963 7.58621C13.6963 7.58621 15.6373 8.8231 16.5043 10.6784L14.7343 10.2153C14.5753 10.1743 14.4103 10.2652 14.3683 10.4234C14.3263 10.5817 14.4193 10.74 14.5813 10.781L16.9003 11.3878C16.9273 11.3936 16.9513 11.3966 16.9783 11.3966C16.9813 11.3966 16.9843 11.3936 16.9873 11.3936C16.9903 11.3936 16.9933 11.3966 16.9993 11.3966C17.0323 11.3966 17.0653 11.3907 17.0983 11.3819C17.2273 11.3379 17.3023 11.2148 17.2963 11.0888L17.8933 8.9169C17.9353 8.76155 17.8423 8.60035 17.6803 8.55931C17.5213 8.51828 17.3563 8.60914 17.3143 8.76741L16.9273 10.1802C15.8953 8.25448 13.8253 7 11.5963 7C9.16634 7 6.92534 8.48897 6.02234 10.7019C5.95934 10.8514 6.03434 11.0214 6.18734 11.0829Z" fill="black" stroke="black" stroke-width="1.2"/>
</svg>
