<svg width="18" height="18" viewBox="0 0 18 18" fill="none" xmlns="http://www.w3.org/2000/svg">
<path d="M17.9352 16.4098C17.5314 16.2583 17.1601 16.1611 16.821 16.1178C16.4821 16.0887 16.2331 16.006 16.0746 15.869C15.9808 15.8111 15.8545 15.6057 15.6958 15.2522C15.4001 14.661 15.1658 14.1237 14.9928 13.6406C14.7114 12.8759 14.4769 12.2846 14.2894 11.8663C13.8785 10.9073 13.5323 10.0599 13.2512 9.32431C13.0997 8.92777 12.6527 7.85686 11.9098 6.11154L9.69229 0.919377L9.57325 0.6922H9.00004H8.1887L5.15992 8.52384L2.59621 15.1874C2.39427 15.5623 2.22112 15.8077 2.07692 15.9231C1.92552 16.031 1.52883 16.143 0.887038 16.2581C0.468677 16.3378 0.180272 16.4025 0.0216342 16.4529L0 17.3078H0.227178C0.847407 17.3078 1.4496 17.2573 2.03365 17.1564L2.55294 17.07C4.59391 17.2142 5.85232 17.2863 6.3282 17.2863C6.34264 17.2142 6.34983 17.1167 6.34983 16.9943C6.34983 16.7778 6.34627 16.5688 6.33896 16.3668C6.18756 16.3453 6.0415 16.3235 5.90093 16.3019C5.76033 16.2802 5.65212 16.2623 5.57642 16.2477C5.50076 16.2336 5.452 16.2262 5.43036 16.2262C4.87504 16.1469 4.50362 16.0315 4.31619 15.8801C4.19358 15.7937 4.13228 15.6386 4.13228 15.4149C4.13228 15.2707 4.21525 14.968 4.38109 14.5063C4.92202 12.9993 5.29692 12.0111 5.50606 11.5425L10.3741 11.5641L11.3693 14.0304L11.8775 15.2634C11.9208 15.3862 11.9423 15.5014 11.9423 15.6096C11.9423 15.7177 11.8991 15.8152 11.8125 15.9016C11.7259 15.9738 11.4808 16.0567 11.0768 16.1502L9.65963 16.4531C9.63072 16.6912 9.61659 16.9723 9.61659 17.2969L10.244 17.2751L12.4076 17.1562C12.8113 17.1419 13.2983 17.1345 13.868 17.1345C14.56 17.1345 15.2415 17.1634 15.9124 17.2209C16.7199 17.2786 17.4123 17.3074 17.9894 17.3074C17.9966 17.2209 18 17.1273 18 17.0262C18 16.8965 17.9784 16.6912 17.9352 16.4098ZM9.51922 10.2655C9.41821 10.2655 9.22892 10.2635 8.95131 10.26C8.67371 10.2567 8.24474 10.2512 7.66414 10.2439C7.08365 10.2365 6.53014 10.2294 6.00373 10.2222L7.84263 5.35442C8.12391 5.92414 8.45558 6.68494 8.83772 7.63688C9.2706 8.68979 9.60227 9.55883 9.83316 10.2439L9.51922 10.2655Z" fill="black"/>
</svg>
