<svg width="20" height="17" viewBox="0 0 20 17" fill="none" xmlns="http://www.w3.org/2000/svg">
<path d="M1 14.9601L9.295 9.74137L1 4.52261V14.9601ZM1.6 5.52565L8.305 9.74137L1.6 13.9571V5.52565Z" fill="black" stroke="black" stroke-width="1.2"/>
<path d="M10.7051 9.74137L19.0001 14.9601V4.52261L10.7051 9.74137ZM18.4001 13.9571L11.6951 9.74137L18.4001 5.52565V13.9571Z" fill="black" stroke="black" stroke-width="1.2"/>
<path d="M9.99995 11.231C9.83495 11.231 9.69995 11.3427 9.69995 11.4793V11.7276C9.69995 11.8641 9.83495 11.9758 9.99995 11.9758C10.165 11.9758 10.3 11.8641 10.3 11.7276V11.4793C10.3 11.3427 10.165 11.231 9.99995 11.231Z" fill="black"/>
<path d="M9.99995 14.9552C9.83495 14.9552 9.69995 15.0669 9.69995 15.2034V15.4517C9.69995 15.5883 9.83495 15.7 9.99995 15.7C10.165 15.7 10.3 15.5883 10.3 15.4517V15.2034C10.3 15.0669 10.165 14.9552 9.99995 14.9552Z" fill="black"/>
<path d="M9.99995 13.7138C9.83495 13.7138 9.69995 13.8255 9.69995 13.9621V14.2103C9.69995 14.3469 9.83495 14.4586 9.99995 14.4586C10.165 14.4586 10.3 14.3469 10.3 14.2103V13.9621C10.3 13.8255 10.165 13.7138 9.99995 13.7138Z" fill="black"/>
<path d="M9.99995 12.4724C9.83495 12.4724 9.69995 12.5841 9.69995 12.7207V12.969C9.69995 13.1055 9.83495 13.2172 9.99995 13.2172C10.165 13.2172 10.3 13.1055 10.3 12.969V12.7207C10.3 12.5841 10.165 12.4724 9.99995 12.4724Z" fill="black"/>
<path d="M9.99995 5.02414C9.83495 5.02414 9.69995 5.13586 9.69995 5.27242V5.52069C9.69995 5.65724 9.83495 5.76897 9.99995 5.76897C10.165 5.76897 10.3 5.65724 10.3 5.52069V5.27242C10.3 5.13586 10.165 5.02414 9.99995 5.02414Z" fill="black"/>
<path d="M9.99995 6.2655C9.83495 6.2655 9.69995 6.37723 9.69995 6.51378V6.76205C9.69995 6.89861 9.83495 7.01033 9.99995 7.01033C10.165 7.01033 10.3 6.89861 10.3 6.76205V6.51378C10.3 6.37723 10.165 6.2655 9.99995 6.2655Z" fill="black"/>
<path d="M9.99995 3.78275C9.83495 3.78275 9.69995 3.89447 9.69995 4.03102V4.2793C9.69995 4.41585 9.83495 4.52757 9.99995 4.52757C10.165 4.52757 10.3 4.41585 10.3 4.2793V4.03102C10.3 3.89447 10.165 3.78275 9.99995 3.78275Z" fill="black"/>
<path d="M9.99995 9.98965C9.83495 9.98965 9.69995 10.1014 9.69995 10.2379V10.4862C9.69995 10.6228 9.83495 10.7345 9.99995 10.7345C10.165 10.7345 10.3 10.6228 10.3 10.4862V10.2379C10.3 10.1014 10.165 9.98965 9.99995 9.98965Z" fill="black"/>
<path d="M9.99995 8.74826C9.83495 8.74826 9.69995 8.85998 9.69995 8.99654V9.24481C9.69995 9.38136 9.83495 9.49309 9.99995 9.49309C10.165 9.49309 10.3 9.38136 10.3 9.24481V8.99654C10.3 8.85998 10.165 8.74826 9.99995 8.74826Z" fill="black"/>
<path d="M9.99995 7.5069C9.83495 7.5069 9.69995 7.61862 9.69995 7.75517V8.00345C9.69995 8.14 9.83495 8.25172 9.99995 8.25172C10.165 8.25172 10.3 8.14 10.3 8.00345V7.75517C10.3 7.61862 10.165 7.5069 9.99995 7.5069Z" fill="black"/>
<path d="M4.59091 4.75847C4.74391 4.80813 4.91791 4.74854 4.98091 4.61944C5.79691 2.93116 7.81291 1.79654 9.99991 1.79654C12.0999 1.79654 14.0409 2.84426 14.9079 4.41585L13.1379 4.02357C12.9789 3.98882 12.8139 4.06578 12.7719 4.19985C12.7299 4.33392 12.8229 4.46799 12.9849 4.50275L15.3039 5.01668C15.3309 5.02164 15.3549 5.02413 15.3819 5.02413C15.3849 5.02413 15.3879 5.02164 15.3909 5.02164C15.3939 5.02164 15.3969 5.02413 15.4029 5.02413C15.4359 5.02413 15.4689 5.01916 15.5019 5.01171C15.6309 4.97447 15.7059 4.87019 15.6999 4.76344L16.2969 2.92371C16.3389 2.79213 16.2459 2.65557 16.0839 2.62082C15.9249 2.58606 15.7599 2.66302 15.7179 2.79709L15.3309 3.99378C14.2989 2.36261 12.2289 1.29999 9.99991 1.29999C7.56991 1.29999 5.32891 2.56123 4.42591 4.43571C4.36291 4.56233 4.43791 4.70633 4.59091 4.75847Z" fill="black" stroke="black" stroke-width="1.2"/>
</svg>
