<?xml version="1.0" encoding="UTF-8" standalone="no"?> <svg width="512" height="512" viewBox="0 0 512 512" fill="none" xmlns="http://www.w3.org/2000/svg">
<path d="M32 96H480V416H32V96Z" fill="#E92B2B"/>
<path d="M32 336H480V376H32V336Z" fill="#FBFBFB"/>
<path d="M32 256H480V296H32V256Z" fill="#FBFBFB"/>
<path d="M32 176H480V216H32V176Z" fill="#FBFBFB"/>
<path d="M32 96H480V136H32V96Z" fill="#FBFBFB"/>
<path d="M32 96H240V256H32V96Z" fill="#2A2FAF"/>
<path fill-rule="evenodd" clip-rule="evenodd" d="M160 133.424C155.429 131.981 150.546 131.2 145.474 131.2C119.761 131.2 98.9173 151.258 98.9173 176C98.9173 200.742 119.761 220.8 145.474 220.8C150.546 220.8 155.429 220.019 160 218.576C149.83 226.946 136.626 232 122.195 232C90.055 232 64 206.928 64 176C64 145.072 90.055 120 122.195 120C136.626 120 149.83 125.054 160 133.424Z" fill="#FFE70E"/>
<path fill-rule="evenodd" clip-rule="evenodd" d="M181.525 160.092L176.034 144L170.606 159.905L156.464 149.983L161.842 166.113H144.067L158.28 175.944L144 185.682L161.77 185.797L156.277 201.891L170.493 192.058L175.808 208L181.413 191.946L195.79 201.891L190.36 185.981L207.931 186.094L193.625 176.056L208 166.113H190.433L195.975 150.237L181.525 160.092Z" fill="#FFE70E"/>
</svg>
