<svg width="29" height="29" viewBox="0 0 29 29" fill="none" xmlns="http://www.w3.org/2000/svg">
<path d="M14 8C7 8 5 11.24 5 15.02C5 18.8 7.5 20.96 10.5 20.96H10.7625C11.5187 20.96 12.2125 20.4976 12.55 19.7652L13.275 18.2026C13.4125 17.9056 13.6906 17.72 14 17.72C14.3094 17.72 14.5875 17.9056 14.725 18.2026L15.45 19.7652C15.7875 20.4976 16.4813 20.96 17.2375 20.96H17.5C20.5 20.96 23 18.8 23 15.02C23 11.24 21 8 14 8ZM8 14.48C8 13.9071 8.21071 13.3577 8.58579 12.9526C8.96086 12.5476 9.46957 12.32 10 12.32C10.5304 12.32 11.0391 12.5476 11.4142 12.9526C11.7893 13.3577 12 13.9071 12 14.48C12 15.0529 11.7893 15.6023 11.4142 16.0074C11.0391 16.4124 10.5304 16.64 10 16.64C9.46957 16.64 8.96086 16.4124 8.58579 16.0074C8.21071 15.6023 8 15.0529 8 14.48ZM18 12.32C18.5304 12.32 19.0391 12.5476 19.4142 12.9526C19.7893 13.3577 20 13.9071 20 14.48C20 15.0529 19.7893 15.6023 19.4142 16.0074C19.0391 16.4124 18.5304 16.64 18 16.64C17.4696 16.64 16.9609 16.4124 16.5858 16.0074C16.2107 15.6023 16 15.0529 16 14.48C16 13.9071 16.2107 13.3577 16.5858 12.9526C16.9609 12.5476 17.4696 12.32 18 12.32Z" fill="black"/>
</svg>
