<?xml version="1.0" encoding="UTF-8" standalone="no"?> <svg width="512" height="512" viewBox="0 0 512 512" fill="none" xmlns="http://www.w3.org/2000/svg">
<path d="M480 416H32V96H480V416Z" fill="#2A2FAF"/>
<path d="M480 256L480 416L32 416L32 256L480 256Z" fill="#E92B2B"/>
<path d="M224 256L32 96V416L224 256Z" fill="#FBFBFB"/>
<path fill-rule="evenodd" clip-rule="evenodd" d="M102.907 236.115L96.0421 216L89.2573 235.882L71.5799 223.478L78.3025 243.641H56.0843L73.8498 255.93L56 268.103L78.2125 268.246L71.3468 288.364L89.1162 276.072L95.7606 296L102.767 275.933L120.737 288.364L113.95 268.476L135.914 268.617L118.031 256.07L136 243.641H114.041L120.969 223.796L102.907 236.115Z" fill="#FFE70E"/>
<path d="M56.0064 352L58.7006 360.292H67.4191L60.3657 365.416L63.0599 373.708L56.0064 368.584L48.953 373.708L51.6472 365.416L44.5938 360.292H53.3123L56.0064 352Z" fill="#FFE70E"/>
<path d="M50.7133 137.228L56.786 143.484L64.6122 139.642L60.5392 147.35L66.6119 153.606L58.0219 152.114L53.9489 159.823L52.713 151.193L44.123 149.701L51.9492 145.859L50.7133 137.228Z" fill="#FFE70E"/>
<path d="M191.604 244.804L191.682 253.522L199.998 256.142L191.731 258.91L191.809 267.629L186.621 260.621L178.354 263.39L183.415 256.291L178.227 249.284L186.543 251.903L191.604 244.804Z" fill="#FFE70E"/>
</svg>
