<svg width="32" height="32" viewBox="0 0 32 32" fill="none" xmlns="http://www.w3.org/2000/svg">
<path d="M7 24.9999H15.1818V16.818H7V24.9999ZM8.63623 18.4545H13.5454V23.3509H8.63623V18.4545Z" fill="black"/>
<path d="M11.909 20.0907H10.2727V21.7272H11.909V20.0907Z" fill="black"/>
<path d="M21.7273 23.3636H20.0906V25H21.7273V23.3636Z" fill="black"/>
<path d="M25 23.3636H23.3633V25H25V23.3636Z" fill="black"/>
<path d="M23.3634 18.4545H21.7272V16.818H16.8179V24.9999H18.4544V20.0907H20.0905V21.7273H24.9998V16.818H23.3634V18.4545Z" fill="black"/>
<path d="M7 15.182H15.1818V7H7V15.182ZM8.63623 8.63623H13.5454V13.5454H8.63623V8.63623Z" fill="black"/>
<path d="M11.909 10.2727H10.2727V11.9092H11.909V10.2727Z" fill="black"/>
<path d="M16.8179 7V15.182H24.9999V7H16.8179ZM23.3634 13.5454H18.4544V8.63623H23.3634V13.5454Z" fill="black"/>
<path d="M21.7273 10.2727H20.0906V11.9092H21.7273V10.2727Z" fill="black"/>
</svg>
