<svg width="33" height="33" viewBox="0 0 33 33" fill="none" xmlns="http://www.w3.org/2000/svg">
<path fill-rule="evenodd" clip-rule="evenodd" d="M20.8241 11.1776C20.5866 11.3979 20.608 11.7372 20.8719 11.9354L22.8409 13.4146H12.1429C9.30254 13.4146 7 15.3365 7 17.7073C7 20.0781 9.30254 22 12.1429 22H20.5C20.8551 22 21.1429 21.7598 21.1429 21.4634C21.1429 21.1671 20.8551 20.9268 20.5 20.9268H12.1429C10.0126 20.9268 8.28571 19.4854 8.28571 17.7073C8.28571 15.9292 10.0126 14.4878 12.1429 14.4878H22.8409L20.8719 15.967C20.608 16.1653 20.5866 16.5045 20.8241 16.7248C21.0616 16.9451 21.4681 16.9629 21.732 16.7647L24.6808 14.5495C25.1064 14.2297 25.1064 13.6727 24.6808 13.353L21.732 11.1377C21.4681 10.9395 21.0616 10.9574 20.8241 11.1776Z" fill="black"/>
</svg>
