<svg width="18" height="19" viewBox="0 0 18 19" fill="none" xmlns="http://www.w3.org/2000/svg">
<g clip-path="url(#clip0_370_1343)">
<path d="M5.91814 1.92606L6.92669 2.80331H5.59H5C3.79049 2.80331 2.63976 3.23614 1.79891 3.99274C0.959805 4.74779 0.5 5.75983 0.5 6.80239V8.60203C0.5 8.69001 0.538376 8.78656 0.627337 8.86661C0.718039 8.94822 0.851353 9.00184 1 9.00184C1.14865 9.00184 1.28196 8.94822 1.37266 8.86661C1.46162 8.78656 1.5 8.69001 1.5 8.60203V6.80239C1.5 5.93579 1.88305 5.11686 2.54423 4.52191C3.20368 3.92854 4.08778 3.60295 5 3.60295H5.59H6.92669L5.91814 4.4802L5.62099 4.73867C5.57718 4.77822 5.54545 4.82226 5.52484 4.86679C5.50401 4.91177 5.4942 4.95781 5.4942 5.00276C5.4942 5.04771 5.50401 5.09375 5.52484 5.13873C5.54575 5.18391 5.57811 5.22859 5.62293 5.26859L5.62294 5.26858L5.62596 5.27132C5.67038 5.31162 5.72605 5.34608 5.79094 5.37041C5.85585 5.39475 5.92705 5.40779 6 5.40779C6.07295 5.40779 6.14415 5.39475 6.20906 5.37041C6.27395 5.34608 6.32962 5.31162 6.37404 5.27131L6.37556 5.26995L8.37555 3.47031L8.37707 3.46896C8.42189 3.42896 8.45425 3.38428 8.47516 3.3391C8.49599 3.29412 8.5058 3.24808 8.5058 3.20313C8.5058 3.15818 8.49599 3.11214 8.47516 3.06716C8.45425 3.02198 8.42189 2.9773 8.37707 2.9373L8.37556 2.93594L6.37556 1.13631C6.28409 1.054 6.14973 1 6 1C5.92689 1 5.85552 1.01301 5.79037 1.03729C5.72525 1.06156 5.66926 1.09598 5.62444 1.13631C5.57973 1.17655 5.54743 1.22142 5.52653 1.26682C5.50572 1.31202 5.49591 1.35829 5.49591 1.4035C5.49591 1.44871 5.50572 1.49497 5.52653 1.54017C5.54703 1.58471 5.57851 1.62875 5.62191 1.66839L5.91814 1.92606ZM6.5 14.9007V15.4007H6H5C4.85135 15.4007 4.71804 15.4544 4.62734 15.536C4.53838 15.616 4.5 15.7126 4.5 15.8006C4.5 15.8885 4.53838 15.9851 4.62734 16.0651C4.71804 16.1468 4.85135 16.2004 5 16.2004H6H6.5V16.7004V17.6002C6.5 17.6882 6.53838 17.7847 6.62734 17.8648C6.71804 17.9464 6.85135 18 7 18C7.14865 18 7.28196 17.9464 7.37266 17.8648C7.46162 17.7847 7.5 17.6882 7.5 17.6002V16.7004V16.2004H8H15C15.1486 16.2004 15.282 16.1468 15.3727 16.0651C15.4616 15.9851 15.5 15.8885 15.5 15.8006V9.50184V9.00184H16H17C17.1486 9.00184 17.282 8.94823 17.3727 8.86661C17.4616 8.78656 17.5 8.69001 17.5 8.60203C17.5 8.51404 17.4616 8.41749 17.3727 8.33744C17.282 8.25582 17.1486 8.20221 17 8.20221H16H15.5V7.70221V6.80239C15.5 6.71441 15.4616 6.61786 15.3727 6.53781C15.282 6.45619 15.1486 6.40258 15 6.40258C14.8514 6.40258 14.718 6.45619 14.6273 6.53781C14.5384 6.61786 14.5 6.71441 14.5 6.80239V7.70221V8.20221H14H7C6.85135 8.20221 6.71804 8.25582 6.62734 8.33744C6.53838 8.41749 6.5 8.51404 6.5 8.60203V14.9007ZM8 15.4007H7.5V14.9007V9.50184V9.00184H8H14H14.5V9.50184V14.9007V15.4007H14H8Z" fill="black" stroke="black"/>
</g>
<defs>
<clipPath id="clip0_370_1343">
<rect width="18" height="18" fill="white" transform="translate(0 0.5)"/>
</clipPath>
</defs>
</svg>
