<svg width="512" height="512" viewBox="0 0 512 512" fill="none" xmlns="http://www.w3.org/2000/svg">
<path d="M32 96H480V416H32V96Z" fill="#ff000d" id="id_101"></path>
<path d="M32 200H480V312H32V200Z" fill="#0d00c4" id="id_102"></path>
<path d="M32 96H480V200H32V96Z" fill="#ffffff" id="id_103"></path>
<path d="M255.995 216L264.976 243.639H294.038L270.526 260.721L279.507 288.361L255.995 271.279L232.484 288.361L241.465 260.721L217.953 243.639H247.015L255.995 216Z" fill="#0d00c4" id="id_104"></path>
<path fill-rule="evenodd" clip-rule="evenodd" d="M256 292C275.882 292 292 275.882 292 256C292 236.118 275.882 220 256 220C236.118 220 220 236.118 220 256C220 275.882 236.118 292 256 292ZM256 304C282.51 304 304 282.51 304 256C304 229.49 282.51 208 256 208C229.49 208 208 229.49 208 256C208 282.51 229.49 304 256 304Z" fill="#0d00c4" id="id_105"></path>
</svg>