<svg width="32" height="32" viewBox="0 0 32 32" fill="none" xmlns="http://www.w3.org/2000/svg">
<path fill-rule="evenodd" clip-rule="evenodd" d="M20.1925 9.6925C19.9075 9.4075 19.525 9.25 19.1275 9.25H10.75C9.9175 9.25 9.25 9.925 9.25 10.75V21.25C9.25 22.075 9.925 22.75 10.75 22.75H21.25C22.075 22.75 22.75 22.075 22.75 21.25V12.8725C22.75 12.475 22.5925 12.0925 22.3075 11.815L20.1925 9.6925ZM16 21.25C14.755 21.25 13.75 20.245 13.75 19C13.75 17.755 14.755 16.75 16 16.75C17.245 16.75 18.25 17.755 18.25 19C18.25 20.245 17.245 21.25 16 21.25ZM16.75 13.75H12.25C11.425 13.75 10.75 13.075 10.75 12.25C10.75 11.425 11.425 10.75 12.25 10.75H16.75C17.575 10.75 18.25 11.425 18.25 12.25C18.25 13.075 17.575 13.75 16.75 13.75Z" fill="#1D1D1D"/>
</svg>
