<svg width="32" height="32" viewBox="0 0 32 32" fill="none" xmlns="http://www.w3.org/2000/svg">
<path fill-rule="evenodd" clip-rule="evenodd" d="M11.1759 11.1776C11.4134 11.3979 11.392 11.7372 11.1281 11.9354L9.15906 13.4146H19.8571C22.6974 13.4146 25 15.3365 25 17.7073C25 20.0781 22.6974 22 19.8571 22H11.5C11.1449 22 10.8571 21.7598 10.8571 21.4634C10.8571 21.1671 11.1449 20.9268 11.5 20.9268H19.8571C21.9874 20.9268 23.7143 19.4854 23.7143 17.7073C23.7143 15.9292 21.9874 14.4878 19.8571 14.4878H9.15906L11.1281 15.967C11.392 16.1653 11.4134 16.5045 11.1759 16.7248C10.9384 16.9451 10.5319 16.9629 10.268 16.7647L7.31922 14.5495C6.8936 14.2297 6.8936 13.6727 7.31921 13.353L10.268 11.1377C10.5319 10.9395 10.9384 10.9574 11.1759 11.1776Z" fill="black"/>
</svg>
