<svg width="18" height="19" viewBox="0 0 18 19" fill="none" xmlns="http://www.w3.org/2000/svg">
<path d="M13 2.30331H12.41L12.71 2.04237C12.8032 1.95847 12.8772 1.85887 12.9277 1.74925C12.9781 1.63963 13.0041 1.52215 13.0041 1.4035C13.0041 1.28485 12.9781 1.16736 12.9277 1.05774C12.8772 0.948127 12.8032 0.848526 12.71 0.764628C12.6168 0.680731 12.5061 0.61418 12.3842 0.568775C12.2624 0.52337 12.1319 0.5 12 0.5C11.7337 0.5 11.4783 0.59519 11.29 0.764628L9.29 2.56426C9.19627 2.64791 9.12188 2.74743 9.07111 2.85708C9.02034 2.96673 8.9942 3.08434 8.9942 3.20313C8.9942 3.32192 9.02034 3.43953 9.07111 3.54918C9.12188 3.65883 9.19627 3.75835 9.29 3.842L11.29 5.64163C11.383 5.72597 11.4936 5.79291 11.6154 5.83859C11.7373 5.88427 11.868 5.90779 12 5.90779C12.132 5.90779 12.2627 5.88427 12.3846 5.83859C12.5064 5.79291 12.617 5.72597 12.71 5.64163C12.8037 5.55798 12.8781 5.45846 12.9289 5.34881C12.9797 5.23916 13.0058 5.12155 13.0058 5.00276C13.0058 4.88397 12.9797 4.76636 12.9289 4.65671C12.8781 4.54706 12.8037 4.44754 12.71 4.36389L12.41 4.10295H13C13.7956 4.10295 14.5587 4.38735 15.1213 4.8936C15.6839 5.39984 16 6.08646 16 6.80239V8.60203C16 8.84067 16.1054 9.06954 16.2929 9.23829C16.4804 9.40704 16.7348 9.50184 17 9.50184C17.2652 9.50184 17.5196 9.40704 17.7071 9.23829C17.8946 9.06954 18 8.84067 18 8.60203V6.80239C18 5.60916 17.4732 4.4648 16.5355 3.62106C15.5979 2.77732 14.3261 2.30331 13 2.30331ZM13 14.9007H12V8.60203C12 8.36338 11.8946 8.13451 11.7071 7.96576C11.5196 7.79701 11.2652 7.70221 11 7.70221H4V6.80239C4 6.56375 3.89464 6.33488 3.70711 6.16613C3.51957 5.99738 3.26522 5.90258 3 5.90258C2.73478 5.90258 2.48043 5.99738 2.29289 6.16613C2.10536 6.33488 2 6.56375 2 6.80239V7.70221H1C0.734784 7.70221 0.48043 7.79701 0.292893 7.96576C0.105357 8.13451 0 8.36338 0 8.60203C0 8.84067 0.105357 9.06954 0.292893 9.23829C0.48043 9.40704 0.734784 9.50184 1 9.50184H2V15.8006C2 16.0392 2.10536 16.2681 2.29289 16.4368C2.48043 16.6056 2.73478 16.7004 3 16.7004H10V17.6002C10 17.8388 10.1054 18.0677 10.2929 18.2365C10.4804 18.4052 10.7348 18.5 11 18.5C11.2652 18.5 11.5196 18.4052 11.7071 18.2365C11.8946 18.0677 12 17.8388 12 17.6002V16.7004H13C13.2652 16.7004 13.5196 16.6056 13.7071 16.4368C13.8946 16.2681 14 16.0392 14 15.8006C14 15.5619 13.8946 15.333 13.7071 15.1643C13.5196 14.9955 13.2652 14.9007 13 14.9007ZM10 14.9007H4V9.50184H10V14.9007Z" fill="black"/>
</svg>
